<svg width="1008" height="432" viewBox="0 0 1008 432" fill="none" xmlns="http://www.w3.org/2000/svg">
<rect y="-0.00012207" width="1008" height="432" rx="24" fill="#F6F8FC"/>
<mask id="mask0_116_225" style="mask-type:alpha" maskUnits="userSpaceOnUse" x="0" y="0" width="1008" height="432">
<rect x="1008" y="432" width="1008" height="432" rx="24" transform="rotate(-180 1008 432)" fill="#F6F8FC"/>
</mask>
<g mask="url(#mask0_116_225)">
<g filter="url(#filter0_f_116_225)">
<ellipse cx="1075.5" cy="702" rx="162.5" ry="140" transform="rotate(-180 1075.5 702)" fill="url(#paint0_linear_116_225)"/>
</g>
<g filter="url(#filter1_f_116_225)">
<ellipse cx="40.4642" cy="-443.695" rx="162.366" ry="97.3171" transform="rotate(-180 40.4642 -443.695)" fill="url(#paint1_linear_116_225)"/>
</g>
<g filter="url(#filter2_f_116_225)">
<circle cx="580.829" cy="-421.159" r="188.488" transform="rotate(-180 580.829 -421.159)" fill="url(#paint2_linear_116_225)"/>
</g>
<g filter="url(#filter3_f_116_225)">
<ellipse cx="-260.5" cy="346.5" rx="188.5" ry="134.5" transform="rotate(-180 -260.5 346.5)" fill="url(#paint3_linear_116_225)"/>
</g>
</g>
<g clip-path="url(#clip0_116_225)">
<mask id="mask1_116_225" style="mask-type:luminance" maskUnits="userSpaceOnUse" x="83" y="47" width="866" height="366">
<path d="M948.5 47.8666H83.125V412.866H948.5V47.8666Z" fill="white"/>
</mask>
<g mask="url(#mask1_116_225)">
<path d="M755.642 160.655C755.394 149.041 753.349 139.223 749.727 132.252C745.475 124.066 739.22 120.082 730.035 119.725L730.939 96.7701C748.514 97.4593 762.091 106.08 770.202 121.696C775.505 131.907 778.362 144.851 778.69 160.165L755.642 160.655Z" fill="#BBCBB6" stroke="#1B2E3F" stroke-miterlimit="10" stroke-linecap="round"/>
<path d="M732.122 92.9735C743.698 92.9735 753.083 83.6217 753.083 72.0857C753.083 60.5497 743.698 51.1979 732.122 51.1979C720.546 51.1979 711.162 60.5497 711.162 72.0857C711.162 83.6217 720.546 92.9735 732.122 92.9735Z" fill="#1B2E3F" stroke="#1B2E3F" stroke-miterlimit="10" stroke-linecap="round"/>
<path d="M676.262 73.8632L674.332 71.7291C672.603 69.8973 676.977 59.7224 671.608 59.2085C666.239 58.7007 666.901 65.1212 666.901 65.1212C666.901 65.1212 665.651 63.5916 663.825 61.6691C660.009 57.6427 653.675 51.8691 650.885 54.5776C649.126 56.2885 649.908 58.6282 651.382 60.7502C648.567 58.6523 646.426 58.5314 644.994 60.2061C642.877 62.6667 647.081 66.548 650.345 69.0086C646.935 66.9228 641.918 64.5892 640.226 67.6725C637.587 72.509 646.268 74.3711 648.944 77.1763C651.625 79.9754 658.286 88.258 658.286 88.258" fill="#E7D8C9"/>
<path d="M676.262 73.8632L674.332 71.7291C672.603 69.8973 676.977 59.7224 671.608 59.2085C666.239 58.7007 666.901 65.1212 666.901 65.1212C666.901 65.1212 665.651 63.5916 663.825 61.6691C660.009 57.6427 653.675 51.8691 650.885 54.5776C649.126 56.2885 649.908 58.6282 651.382 60.7502C648.567 58.6523 646.426 58.5314 644.994 60.2061C642.877 62.6667 647.081 66.548 650.345 69.0086C646.935 66.9228 641.918 64.5892 640.226 67.6725C637.587 72.509 646.268 74.3711 648.944 77.1763C651.625 79.9754 658.286 88.258 658.286 88.258" stroke="#1B2E3F" stroke-miterlimit="10" stroke-linecap="round"/>
<path d="M651.389 60.7501C653.476 63.0716 656.121 65.3388 656.121 65.3388L651.389 60.7501Z" fill="#BBCBB6"/>
<path d="M651.389 60.7501C653.476 63.0716 656.121 65.3388 656.121 65.3388" stroke="#1B2E3F" stroke-miterlimit="10" stroke-linecap="round"/>
<path d="M650.35 69.0021C651.733 70.2112 652.558 70.6586 652.558 70.6586L650.35 69.0021Z" fill="#BBCBB6"/>
<path d="M650.35 69.0021C651.733 70.2112 652.558 70.6586 652.558 70.6586" stroke="#1B2E3F" stroke-miterlimit="10" stroke-linecap="round"/>
<path d="M659.112 63.1503C659.112 63.1503 653.859 66.2638 651.195 74.0929" stroke="#1B2E3F" stroke-miterlimit="10" stroke-linecap="round"/>
<path d="M727.766 91.1354H732.122V99.019H726.662L727.766 91.1354Z" fill="#E7D8C9" stroke="#1B2E3F" stroke-miterlimit="10" stroke-linecap="round"/>
<path d="M729.393 93.7352C732.998 93.7352 735.921 90.8227 735.921 87.23C735.921 83.6373 732.998 80.7249 729.393 80.7249C725.788 80.7249 722.865 83.6373 722.865 87.23C722.865 90.8227 725.788 93.7352 729.393 93.7352Z" fill="#E7D8C9" stroke="#1B2E3F" stroke-miterlimit="10" stroke-linecap="round"/>
<path d="M726.437 119.677C684.001 119.677 659.347 89.5698 658.291 88.2579L676.297 73.9115L676.26 73.8631C677.055 74.8365 696.135 97.6831 728.488 96.6674L729.192 119.629C728.264 119.659 727.347 119.671 726.437 119.671V119.677Z" fill="#BBCBB6" stroke="#1B2E3F" stroke-miterlimit="10" stroke-linecap="round"/>
<path d="M728.488 96.6675C716.489 96.873 708.208 101.758 701.401 141.188C694.594 180.618 755.636 160.655 755.636 160.655C755.636 160.655 759.052 96.1536 728.482 96.6675H728.488Z" fill="#BBCBB6" stroke="#1B2E3F" stroke-miterlimit="10" stroke-linecap="round"/>
<path d="M798.577 173.872C795.483 146.739 772.381 125.652 744.323 125.652C733.057 125.652 722.592 129.056 713.899 134.878C704.065 125.362 690.652 119.492 675.861 119.492C655.811 119.492 638.297 130.265 628.796 146.31C622.444 143.735 615.504 142.302 608.218 142.302C583.133 142.302 562.015 159.163 555.608 182.125C551.823 180.807 547.752 180.081 543.512 180.081C533.908 180.081 525.166 183.763 518.626 189.785C510.418 177.977 496.732 170.239 481.225 170.239C456.11 170.239 435.75 190.528 435.75 215.563C435.75 240.598 456.11 260.882 481.225 260.882C496.161 260.882 509.417 253.705 517.704 242.624C519.288 244.183 521.01 245.604 522.855 246.856C513.797 260.688 508.531 277.211 508.531 294.961C508.531 343.653 548.14 383.125 597.001 383.125C627.031 383.125 653.566 368.21 669.558 345.412C686.271 344.161 701.687 338.278 714.524 329.053C726.888 335.6 740.992 339.312 755.965 339.312C804.826 339.312 844.435 299.84 844.435 251.148C844.435 217.849 825.907 188.866 798.565 173.866L798.577 173.872Z" fill="white" stroke="#DDE0F0" stroke-miterlimit="10" stroke-linecap="round"/>
<path d="M606.125 148.237C608.643 122.241 591.231 97.943 564.987 92.3871C554.449 90.1562 543.978 91.2686 534.684 94.9928C527.38 84.1408 516.005 75.9912 502.167 73.0651C483.409 69.0931 464.876 75.7071 452.791 88.8383C447.361 85.1686 441.155 82.454 434.342 81.0152C410.877 76.0456 387.757 87.6412 377.189 107.852C373.907 105.869 370.248 104.382 366.281 103.547C357.296 101.643 348.384 103.36 341.062 107.701C335.735 95.029 324.476 85.0839 309.97 82.0127C289.459 77.6719 269.257 88.5118 261.134 106.915C259.023 106.558 256.863 106.359 254.649 106.359C234.956 106.359 218.746 121.17 216.599 140.22C215.81 140.196 215.028 140.178 214.233 140.178C176.08 140.178 145.158 170.999 145.158 209.014C145.158 247.029 176.086 277.85 214.233 277.85C252.38 277.85 330.124 294.421 375.836 304.1C403.93 310.049 431.722 301.349 451.232 283.182C467.114 285.322 482.712 282.868 496.556 276.78C506.814 285.353 519.269 291.616 533.283 294.584C578.995 304.257 623.918 275.172 633.625 229.624C640.262 198.47 628.711 167.692 606.125 148.243V148.237Z" fill="white" stroke="#DDE0F0" stroke-miterlimit="10" stroke-linecap="round"/>
<path d="M605.315 260.027L619.76 277.844H569.716L551.547 260.027H605.315Z" fill="#E6BEAE" stroke="#1B2E3F" stroke-miterlimit="10" stroke-linecap="round"/>
<path d="M506.617 196.288C506.617 196.288 524.222 197.672 519.806 207.877C515.389 218.083 519.327 229.267 516.075 235.748C512.823 242.229 510.215 245.657 506.271 243.468C502.328 241.28 503.857 238.051 503.857 238.051C503.857 238.051 498.949 237.598 498.852 234.448C498.852 234.448 493.095 234.46 498.512 222.973C498.512 222.973 480.452 217.182 506.623 196.288H506.617Z" fill="#E6BEAE" stroke="#1B2E3F" stroke-miterlimit="10" stroke-linecap="round"/>
<path d="M503.857 238.057C503.857 238.057 505.514 235.113 506.017 233.759L503.857 238.057Z" fill="#BBCBB6"/>
<path d="M503.857 238.057C503.857 238.057 505.514 235.113 506.017 233.759" stroke="#1B2E3F" stroke-miterlimit="10" stroke-linecap="round"/>
<path d="M498.852 234.454C499.525 232.187 500.945 230.289 500.945 230.289L498.852 234.454Z" fill="#BBCBB6"/>
<path d="M498.852 234.454C499.525 232.187 500.945 230.289 500.945 230.289" stroke="#1B2E3F" stroke-miterlimit="10" stroke-linecap="round"/>
<path d="M580.666 88.5118L551.752 79.1289V92.0303L558.219 94.9806C558.219 117.833 539.504 127.295 521.51 128.842L519.126 120.215L514.242 121.515L513.442 129.042C493.179 128.649 479.123 123.685 471.642 114.266C465.8 106.915 464.933 98.0518 464.793 92.0243C465.855 83.3608 455.475 74.5281 449.699 74.5281C444.391 74.5281 441.746 82.1275 441.746 92.5684C442.662 130.922 469.07 152.04 516.099 152.04C532.63 152.04 548.082 147.397 559.596 138.969C573.78 128.588 581.273 113.378 581.273 94.9746L580.666 88.5057V88.5118Z" fill="#E6BEAE" stroke="#1B2E3F" stroke-miterlimit="10" stroke-linecap="round"/>
<path d="M516.057 122.93C519.662 122.93 522.585 120.017 522.585 116.424C522.585 112.832 519.662 109.919 516.057 109.919C512.452 109.919 509.529 112.832 509.529 116.424C509.529 120.017 512.452 122.93 516.057 122.93Z" fill="#E6BEAE" stroke="#1B2E3F" stroke-miterlimit="10" stroke-linecap="round"/>
<path d="M509.469 116.153C508.638 112.477 511.083 108.862 514.808 108.245C518.599 107.616 522.124 110.349 522.446 114.164L522.573 115.645C522.579 115.717 522.5 115.766 522.44 115.717C521.439 114.943 515.518 110.808 509.742 116.231C509.651 116.316 509.499 116.274 509.475 116.153H509.469Z" fill="#BBCBB6" stroke="#1B2E3F" stroke-miterlimit="10" stroke-linecap="round"/>
<path d="M522.586 115.838L530.187 114.653" stroke="#1B2E3F" stroke-miterlimit="10" stroke-linecap="round"/>
<path d="M547.984 51.9596L552.14 59.5348" stroke="#1B2E3F" stroke-miterlimit="10" stroke-linecap="round"/>
<path d="M441.487 76.7227C437.362 77.0008 433.879 80.1506 436.415 85.2773C438.951 90.4041 442.269 90.5492 445.042 89.4489C447.814 88.3485 447.02 83.3609 447.02 83.3609" fill="#E6BEAE"/>
<path d="M441.487 76.7227C437.362 77.0008 433.879 80.1506 436.415 85.2773C438.951 90.4041 442.269 90.5492 445.042 89.4489C447.814 88.3485 447.02 83.3609 447.02 83.3609" stroke="#1B2E3F" stroke-miterlimit="10" stroke-linecap="round"/>
<path d="M448.997 71.5597C445.915 71.324 441.881 71.463 441.165 78.7662C440.449 86.0693 445.005 87.3873 448.979 87.1213C452.952 86.8553 452.2 83.4576 452.2 83.4576" fill="#E6BEAE"/>
<path d="M448.997 71.5597C445.915 71.324 441.881 71.463 441.165 78.7662C440.449 86.0693 445.005 87.3873 448.979 87.1213C452.952 86.8553 452.2 83.4576 452.2 83.4576" stroke="#1B2E3F" stroke-miterlimit="10" stroke-linecap="round"/>
<path d="M464.794 92.0242C464.794 92.0242 457.769 80.8216 458.43 70.8885C459.091 60.9555 459.443 57.8783 455.051 57.05C450.659 56.2218 447.777 67.4969 449.47 75.8581" fill="#E6BEAE"/>
<path d="M464.794 92.0242C464.794 92.0242 457.769 80.8216 458.43 70.8885C459.091 60.9555 459.443 57.8783 455.051 57.05C450.659 56.2218 447.777 67.4969 449.47 75.8581" stroke="#1B2E3F" stroke-miterlimit="10" stroke-linecap="round"/>
<path d="M457.702 87.9618C446.4 86.8796 450.896 76.0942 460.39 79.4072C469.884 82.7202 464.23 89.1468 464.891 94.4307" fill="#E6BEAE"/>
<path d="M457.702 87.9618C446.4 86.8796 450.896 76.0942 460.39 79.4072C469.884 82.7202 464.23 89.1468 464.891 94.4307" stroke="#1B2E3F" stroke-miterlimit="10" stroke-linecap="round"/>
<path d="M545.852 63.4345L558.197 92.0245C558.197 92.0245 567.691 92.2965 569.59 88.0404L564.367 57.008C564.367 57.008 551.427 53.973 545.852 63.4406V63.4345Z" fill="#BBCBB6" stroke="#1B2E3F" stroke-miterlimit="10" stroke-linecap="round"/>
<path d="M558.22 94.9807C553.209 92.8527 544.109 90.7246 544.819 84.4915C545.528 78.2584 554.076 70.8464 557.716 75.5802C561.356 80.314 554.076 84.1771 553.045 86.0694" fill="#E6BEAE"/>
<path d="M558.22 94.9807C553.209 92.8527 544.109 90.7246 544.819 84.4915C545.528 78.2584 554.076 70.8464 557.716 75.5802C561.356 80.3139 554.076 84.1771 553.045 86.0694" stroke="#1B2E3F" stroke-miterlimit="10" stroke-linecap="round"/>
<path d="M567.006 72.6721C570.573 72.799 573.23 70.7677 572.915 66.9831C572.599 63.1985 567.085 63.259 565.447 63.4283C563.809 63.5975 562.911 72.5209 567 72.6721H567.006Z" fill="#E6BEAE" stroke="#1B2E3F" stroke-miterlimit="10" stroke-linecap="round"/>
<path d="M567.006 72.672C570.604 72.0553 578.375 70.689 578.375 75.8943C578.375 81.0996 571.665 81.4926 568.571 81.9642C565.477 82.4357 563.918 73.1979 567.006 72.672Z" fill="#E6BEAE" stroke="#1B2E3F" stroke-miterlimit="10" stroke-linecap="round"/>
<path d="M581.276 94.9808C581.379 87.8046 581.476 84.8482 578.673 82.4844C575.87 80.1205 571.526 81.3418 568.572 81.9705C565.618 82.5993 566.546 90.1382 571.551 89.7573C576.556 89.3764 577.266 88.9895 577.266 88.9895" fill="#E6BEAE"/>
<path d="M581.276 94.9808C581.379 87.8046 581.476 84.8482 578.673 82.4844C575.87 80.1205 571.526 81.3418 568.572 81.9705C565.618 82.5993 566.546 90.1382 571.551 89.7573C576.556 89.3764 577.266 88.9895 577.266 88.9895" stroke="#1B2E3F" stroke-miterlimit="10" stroke-linecap="round"/>
<path d="M499.49 151.066C478.749 152.856 469.412 172.414 469.412 187.395C469.412 202.376 479.064 218.778 494.576 223.354L512.461 194.964C512.461 194.964 500.036 193.991 503.834 179.59C505.891 171.779 516.058 175.884 516.058 175.884L549.807 261.521H609.63L536.661 149.519L499.484 151.066H499.49Z" fill="#1B2E3F" stroke="#1B2E3F" stroke-miterlimit="10" stroke-linecap="round"/>
<path d="M513.443 129.042H516.574" stroke="#1B2E3F" stroke-miterlimit="10" stroke-linecap="round"/>
<path d="M619.76 277.844C619.76 272.965 615.792 269.011 610.897 269.011C606.001 269.011 602.033 272.965 602.033 277.844H619.76Z" fill="#E6BEAE" stroke="#1B2E3F" stroke-miterlimit="10" stroke-linecap="round"/>
<path d="M606.469 277.844C606.469 271.593 602.501 266.526 597.606 266.526C592.71 266.526 588.742 271.593 588.742 277.844H606.469Z" fill="#E6BEAE" stroke="#1B2E3F" stroke-miterlimit="10" stroke-linecap="round"/>
<path d="M592.26 277.844C592.26 269.894 587.213 263.455 580.989 263.455C574.764 263.455 569.717 269.9 569.717 277.844H592.26Z" fill="#E6BEAE" stroke="#1B2E3F" stroke-miterlimit="10" stroke-linecap="round"/>
<path d="M384.069 195.353C384.069 195.353 400.436 203.248 401.067 190.002C401.698 176.756 410.246 166.92 410.246 158.275C410.246 149.629 409.457 144.581 404.944 144.817C400.43 145.053 400.351 149.309 400.351 149.309C400.351 149.309 395.759 147.181 394.261 150.494C394.261 150.494 389.116 147.417 388.801 162.561C388.801 162.561 370.049 159.133 384.069 195.359V195.353Z" fill="#E6BEAE" stroke="#1B2E3F" stroke-miterlimit="10" stroke-linecap="round"/>
<path d="M290.733 99.233C287.208 99.233 283.999 100.557 281.566 102.727C279.133 100.551 275.924 99.233 272.399 99.233C264.816 99.233 258.671 105.357 258.671 112.914C258.671 112.932 258.671 112.945 258.671 112.963C253.15 113.434 248.818 118.041 248.818 123.657C248.818 129.594 253.647 134.401 259.599 134.401C262.456 134.401 265.047 133.282 266.976 131.474C268.759 134.951 272.381 137.339 276.573 137.339C282.531 137.339 287.354 132.526 287.354 126.596C287.354 126.451 287.335 126.311 287.329 126.172C288.415 126.451 289.55 126.596 290.727 126.596C298.31 126.596 304.455 120.471 304.455 112.914C304.455 105.357 298.31 99.233 290.727 99.233H290.733Z" fill="#1B2E3F"/>
<path d="M290.483 123.996H286.133V131.879H291.593L290.483 123.996Z" fill="#E6BEAE" stroke="#1B2E3F" stroke-miterlimit="10" stroke-linecap="round"/>
<path d="M253.881 165.572C252.54 169.719 264.486 171.237 261.64 175.572C258.516 180.33 251.934 174.072 251.934 174.072C249.719 183.377 247.815 188.044 244.102 186.925C240.899 185.964 242.209 181.164 242.585 179.961C241.044 184.295 239.346 186.272 236.792 185.505C233.625 184.555 234.753 179.622 235.117 178.298C234.074 181.551 232.326 184.543 229.512 183.691C223.815 181.956 231.198 161.467 231.198 161.467C232.126 158.378 235.384 151.002 244.047 142.816C249.064 138.076 257.163 132.883 269.721 130.477C272.033 130.036 274.496 129.685 277.122 129.455L274.447 152.876C264.455 154.557 259.086 158.565 256.356 161.715L256.344 161.727C254.973 163.311 254.263 164.677 253.972 165.415L253.887 165.548C253.887 165.548 253.887 165.566 253.887 165.572H253.881Z" fill="#E6BEAE" stroke="#1B2E3F" stroke-miterlimit="10" stroke-linecap="round"/>
<path d="M346.653 123.833C343.013 133.282 336.018 140.906 326.414 145.881C320.827 148.783 314.5 150.73 307.487 151.709L300.734 129.328C313.347 128.421 322.046 123.615 325.134 115.598C328.125 107.83 325.383 98.2595 318.461 91.2707C316.659 89.4993 306.358 93.6346 305.958 88.2781C305.563 82.9156 311.994 83.7197 311.994 83.7197C311.994 83.7197 310.49 82.444 308.597 80.582C304.641 76.6946 298.987 70.256 301.766 67.5354C303.519 65.8185 305.849 66.6528 307.948 68.1642C305.903 65.3167 305.83 63.1765 307.541 61.786C310.059 59.7305 313.856 64.0048 316.253 67.3117C314.233 63.8718 312.006 58.8176 315.137 57.2034C320.044 54.6824 321.725 63.37 324.479 66.0966C327.227 68.8292 329.963 70.7517 329.963 70.7517C338.19 77.2327 344.153 85.6906 347.199 95.2064C350.268 104.795 350.074 114.964 346.659 123.833H346.653Z" fill="#E6BEAE" stroke="#1B2E3F" stroke-miterlimit="10" stroke-linecap="round"/>
<path d="M307.941 68.1642C310.229 70.2983 312.443 72.9765 312.443 72.9765L307.941 68.1642Z" fill="#E6BEAE"/>
<path d="M307.941 68.1642C310.229 70.2983 312.443 72.9765 312.443 72.9765" stroke="#1B2E3F" stroke-miterlimit="10" stroke-linecap="round"/>
<path d="M316.248 67.3118C317.431 68.7205 317.862 69.5487 317.862 69.5487L316.248 67.3118Z" fill="#E6BEAE"/>
<path d="M316.248 67.3118C317.431 68.7205 317.862 69.5487 317.862 69.5487" stroke="#1B2E3F" stroke-miterlimit="10" stroke-linecap="round"/>
<path d="M310.193 75.4974C310.193 75.4974 313.433 70.3344 321.344 67.8497L310.193 75.4974Z" fill="#E6BEAE"/>
<path d="M310.193 75.4974C310.193 75.4974 313.433 70.3344 321.344 67.8497" stroke="#1B2E3F" stroke-miterlimit="10" stroke-linecap="round"/>
<path d="M235.117 178.298C236.1 174.683 236.397 173.733 236.397 173.733L235.117 178.298Z" fill="#E6BEAE"/>
<path d="M235.117 178.298C236.1 174.683 236.397 173.733 236.397 173.733" stroke="#1B2E3F" stroke-miterlimit="10" stroke-linecap="round"/>
<path d="M242.588 179.961C243.461 177.168 243.88 175.215 243.88 175.215L242.588 179.961Z" fill="#E6BEAE"/>
<path d="M242.588 179.961C243.461 177.168 243.88 175.215 243.88 175.215" stroke="#1B2E3F" stroke-miterlimit="10" stroke-linecap="round"/>
<path d="M288.864 126.595C292.469 126.595 295.391 123.683 295.391 120.09C295.391 116.498 292.469 113.585 288.864 113.585C285.258 113.585 282.336 116.498 282.336 120.09C282.336 123.683 285.258 126.595 288.864 126.595Z" fill="#E6BEAE" stroke="#1B2E3F" stroke-miterlimit="10" stroke-linecap="round"/>
<path d="M322.411 201.199H268.922L274.449 152.876L277.124 129.455C281.462 129.068 286.242 128.996 291.496 129.328C294.766 129.54 297.854 129.534 300.735 129.328L307.487 151.709L322.411 201.199Z" fill="#B2967D" stroke="#1B2E3F" stroke-miterlimit="10" stroke-linecap="round"/>
<path d="M383.819 197.094L388.806 162.555C388.806 162.555 354.329 134.594 307.943 154.986C254.915 178.298 315.769 179.96 315.769 179.96C315.769 179.96 343.7 169.181 383.819 197.1V197.094Z" fill="#B2967D" stroke="#1B2E3F" stroke-miterlimit="10" stroke-linecap="round"/>
<path d="M400.355 149.309C400.355 149.309 400.513 153.329 400.355 155.046V149.309Z" fill="#E6BEAE"/>
<path d="M400.355 149.309C400.355 149.309 400.513 153.329 400.355 155.046" stroke="#1B2E3F" stroke-miterlimit="10" stroke-linecap="round"/>
<path d="M394.26 150.488C393.847 153.269 394.26 156.05 394.26 156.05V150.488Z" fill="#E6BEAE"/>
<path d="M394.26 150.488C393.847 153.269 394.26 156.05 394.26 156.05" stroke="#1B2E3F" stroke-miterlimit="10" stroke-linecap="round"/>
<path d="M510.836 257.817C509.222 257.817 507.632 257.926 506.067 258.119C494.868 239.516 474.43 227.062 451.073 227.062C445.431 227.062 439.959 227.794 434.748 229.154C429.719 213.925 415.335 202.928 398.372 202.928C391.905 202.928 385.815 204.53 380.47 207.354C377.17 189.622 361.578 176.188 342.826 176.188C336.711 176.188 330.936 177.621 325.81 180.16C315.903 173.903 304.152 170.275 291.551 170.275C266.29 170.275 244.444 184.846 234.009 206.005C229.374 204.022 224.272 202.922 218.916 202.922C197.761 202.922 180.617 220.007 180.617 241.088C159.463 241.088 142.318 258.173 142.318 279.255C142.318 292.743 149.344 304.586 159.942 311.375C158.577 315.299 157.825 319.501 157.825 323.89C157.825 344.971 174.969 362.056 196.123 362.056C208.451 362.056 219.407 356.246 226.414 347.232C237.085 355.152 250.31 359.843 264.64 359.843C287.65 359.843 307.822 347.758 319.124 329.609C330.881 343.828 348.681 352.897 368.616 352.897C383.794 352.897 397.742 347.637 408.716 338.847C420.012 348.768 434.833 354.789 451.073 354.789C470.529 354.789 487.958 346.144 499.716 332.505C503.234 333.569 506.965 334.143 510.836 334.143C531.99 334.143 549.134 317.058 549.134 295.977C549.134 274.896 531.99 257.811 510.836 257.811V257.817Z" fill="white" stroke="#DDE0F0" stroke-miterlimit="10" stroke-linecap="round"/>
<path d="M234.973 262.151C234.973 241.07 252.117 223.985 273.271 223.985C294.426 223.985 311.57 241.07 311.57 262.151" fill="white"/>
<path d="M234.973 262.151C234.973 241.07 252.117 223.985 273.271 223.985C294.426 223.985 311.57 241.07 311.57 262.151" stroke="#DDE0F0" stroke-miterlimit="10" stroke-linecap="round"/>
<path d="M429.888 303.316C429.888 290.258 419.266 279.672 406.162 279.672C405.422 279.672 404.687 279.708 403.966 279.775C400.125 262.738 384.862 250.006 366.607 250.006C345.453 250.006 328.309 267.091 328.309 288.172" fill="white"/>
<path d="M429.888 303.316C429.888 290.258 419.266 279.672 406.162 279.672C405.422 279.672 404.687 279.708 403.966 279.775C400.125 262.738 384.862 250.006 366.607 250.006C345.453 250.006 328.309 267.091 328.309 288.172" stroke="#DDE0F0" stroke-miterlimit="10" stroke-linecap="round"/>
<path d="M765.296 231.288C765.296 210.207 748.152 193.122 726.997 193.122C707.542 193.122 691.483 207.583 689.032 226.306C687.303 225.992 685.526 225.823 683.712 225.823C667.308 225.823 654.01 239.075 654.01 255.422" fill="white"/>
<path d="M765.296 231.288C765.296 210.207 748.152 193.122 726.997 193.122C707.542 193.122 691.483 207.583 689.032 226.306C687.303 225.992 685.526 225.823 683.712 225.823C667.308 225.823 654.01 239.075 654.01 255.422" stroke="#DDE0F0" stroke-miterlimit="10" stroke-linecap="round"/>
</g>
</g>
<defs>
<filter id="filter0_f_116_225" x="469" y="118" width="1213" height="1168" filterUnits="userSpaceOnUse" color-interpolation-filters="sRGB">
<feFlood flood-opacity="0" result="BackgroundImageFix"/>
<feBlend mode="normal" in="SourceGraphic" in2="BackgroundImageFix" result="shape"/>
<feGaussianBlur stdDeviation="222" result="effect1_foregroundBlur_116_225"/>
</filter>
<filter id="filter1_f_116_225" x="-565.902" y="-985.012" width="1212.73" height="1082.63" filterUnits="userSpaceOnUse" color-interpolation-filters="sRGB">
<feFlood flood-opacity="0" result="BackgroundImageFix"/>
<feBlend mode="normal" in="SourceGraphic" in2="BackgroundImageFix" result="shape"/>
<feGaussianBlur stdDeviation="222" result="effect1_foregroundBlur_116_225"/>
</filter>
<filter id="filter2_f_116_225" x="-51.6602" y="-1053.65" width="1264.98" height="1264.98" filterUnits="userSpaceOnUse" color-interpolation-filters="sRGB">
<feFlood flood-opacity="0" result="BackgroundImageFix"/>
<feBlend mode="normal" in="SourceGraphic" in2="BackgroundImageFix" result="shape"/>
<feGaussianBlur stdDeviation="222" result="effect1_foregroundBlur_116_225"/>
</filter>
<filter id="filter3_f_116_225" x="-893" y="-232" width="1265" height="1157" filterUnits="userSpaceOnUse" color-interpolation-filters="sRGB">
<feFlood flood-opacity="0" result="BackgroundImageFix"/>
<feBlend mode="normal" in="SourceGraphic" in2="BackgroundImageFix" result="shape"/>
<feGaussianBlur stdDeviation="222" result="effect1_foregroundBlur_116_225"/>
</filter>
<linearGradient id="paint0_linear_116_225" x1="1075.5" y1="562" x2="1075.5" y2="842" gradientUnits="userSpaceOnUse">
<stop stop-color="#7EA373"/>
<stop offset="1" stop-color="#A6FA8C"/>
</linearGradient>
<linearGradient id="paint1_linear_116_225" x1="40.4642" y1="-541.012" x2="40.4642" y2="-346.378" gradientUnits="userSpaceOnUse">
<stop stop-color="#7EA373"/>
<stop offset="1" stop-color="#A6FA8C"/>
</linearGradient>
<linearGradient id="paint2_linear_116_225" x1="580.829" y1="-609.646" x2="580.829" y2="-232.671" gradientUnits="userSpaceOnUse">
<stop stop-color="#E7D8C9"/>
<stop offset="1" stop-color="#E6BEAE"/>
</linearGradient>
<linearGradient id="paint3_linear_116_225" x1="-260.5" y1="212" x2="-260.5" y2="481" gradientUnits="userSpaceOnUse">
<stop stop-color="#E7D8C9"/>
<stop offset="1" stop-color="#E6BEAE"/>
</linearGradient>
<clipPath id="clip0_116_225">
<rect width="882" height="336" fill="white" transform="translate(63 47.9999)"/>
</clipPath>
</defs>
</svg>
