<svg width="720" height="464" viewBox="0 0 720 464" fill="none" xmlns="http://www.w3.org/2000/svg">
<rect width="720" height="464" rx="24" fill="#F6F8FC"/>
<rect width="719" height="464" rx="24" fill="white"/>
<mask id="mask0_295_4591" style="mask-type:alpha" maskUnits="userSpaceOnUse" x="0" y="0" width="720" height="464">
<rect x="719.033" y="464" width="719.032" height="464" rx="24" transform="rotate(-180 719.033 464)" fill="#F6F8FC"/>
</mask>
<g mask="url(#mask0_295_4591)">
<g filter="url(#filter0_f_295_4591)">
<ellipse cx="113.227" cy="377.442" rx="73.5484" ry="29.2815" transform="rotate(-180 113.227 377.442)" fill="url(#paint0_linear_295_4591)"/>
</g>
<g filter="url(#filter1_f_295_4591)">
<ellipse cx="-47.9015" cy="-71.4339" rx="160.161" ry="34.7517" transform="rotate(-180 -47.9015 -71.4339)" fill="url(#paint1_linear_295_4591)"/>
</g>
<g filter="url(#filter2_f_295_4591)">
<ellipse cx="667.259" cy="-4.18292" rx="134.032" ry="28.638" transform="rotate(-180 667.259 -4.18292)" fill="url(#paint2_linear_295_4591)"/>
</g>
<g filter="url(#filter3_f_295_4591)">
<ellipse cx="795.001" cy="395.462" rx="134.032" ry="47.301" transform="rotate(-180 795.001 395.462)" fill="url(#paint3_linear_295_4591)"/>
</g>
</g>
<g clip-path="url(#clip0_295_4591)">
<path d="M-142.875 -105.834C-142.875 -105.834 292.139 108.524 393.797 152.386C495.449 196.247 579.508 166.682 736.802 -102.406" stroke="#E7D8C9" stroke-width="24" stroke-miterlimit="10"/>
<path d="M130.994 28.6737L102.93 80.9294" stroke="#E7D8C9" stroke-width="24" stroke-miterlimit="10"/>
<path d="M277.125 95.4438L249.061 145.764" stroke="#E7D8C9" stroke-width="24" stroke-miterlimit="10"/>
<path d="M416.479 164.149L383.576 234.79" stroke="#E7D8C9" stroke-width="24" stroke-miterlimit="10"/>
<path d="M534.543 146.731L591.64 165.118" stroke="#E7D8C9" stroke-width="24" stroke-miterlimit="10"/>
<path d="M502.607 168.02L504.543 275.433" stroke="#E7D8C9" stroke-width="24" stroke-miterlimit="10"/>
<path d="M107.672 72.9193L28.5995 73.0159C20.7597 73.0255 14.4121 79.3883 14.4216 87.2276L14.5348 179.875C14.5444 187.714 20.9076 194.062 28.7474 194.052L107.82 193.956C115.66 193.946 122.008 187.583 121.998 179.744L121.885 87.0963C121.875 79.257 115.512 72.9097 107.672 72.9193Z" fill="#E7D8C9"/>
<path d="M103.991 84.2638L32.0527 84.3517C27.6345 84.3571 24.0571 87.9432 24.0625 92.3614L24.1504 164.294C24.1558 168.712 27.7419 172.289 32.1602 172.284L104.098 172.196C108.516 172.191 112.094 168.605 112.088 164.186L112 92.254C111.995 87.8357 108.409 84.2584 103.991 84.2638Z" fill="#E6BEAE"/>
<path d="M99.4306 88.4658L36.2461 88.543C31.8278 88.5484 28.2505 92.1345 28.2559 96.5528L28.3331 159.732C28.3385 164.151 31.9245 167.728 36.3428 167.723L99.5273 167.645C103.946 167.64 107.523 164.054 107.518 159.636L107.44 96.4561C107.435 92.0378 103.849 88.4604 99.4306 88.4658Z" fill="#E7D8C9"/>
<path d="M86.676 117.351L65.6289 117.377C63.4198 117.38 61.6311 119.173 61.6338 121.382L61.6412 127.451C61.6439 129.66 63.437 131.449 65.6461 131.446L86.6932 131.421C88.9023 131.418 90.691 129.625 90.6883 127.416L90.6809 121.346C90.6782 119.137 88.8851 117.349 86.676 117.351Z" fill="#E6BEAE"/>
<path d="M86.6956 135.08L65.6484 135.106C63.4393 135.109 61.6506 136.902 61.6533 139.111L61.6607 145.18C61.6634 147.39 63.4565 149.178 65.6656 149.175L86.7128 149.15C88.9219 149.147 90.7106 147.354 90.7079 145.145L90.7005 139.075C90.6978 136.866 88.9047 135.078 86.6956 135.08Z" fill="#E6BEAE"/>
<path d="M44.0724 98.8361L41.3281 98.8394C39.119 98.8421 37.3303 100.635 37.333 102.844L37.3459 113.413C37.3486 115.622 39.1417 117.41 41.3508 117.408L44.095 117.404C46.3042 117.402 48.0928 115.609 48.0902 113.4L48.0772 102.831C48.0745 100.622 46.2815 98.8334 44.0724 98.8361Z" fill="#F6F8FC"/>
<path d="M76.2074 193.935C82.2493 193.935 87.1473 189.038 87.1473 182.996C87.1473 176.954 82.2493 172.056 76.2074 172.056C70.1655 172.056 65.2676 176.954 65.2676 182.996C65.2676 189.038 70.1655 193.935 76.2074 193.935Z" fill="#E6BEAE" stroke="white" stroke-miterlimit="10"/>
<path d="M76.2133 172.025L65.2734 172.038L65.2868 182.978L76.2267 182.965L76.2133 172.025Z" fill="#E6BEAE" stroke="white" stroke-miterlimit="10"/>
<path d="M76.207 182.996L76.221 193.935" stroke="white" stroke-miterlimit="10"/>
<path d="M76.207 182.995L87.1469 182.982" stroke="white" stroke-miterlimit="10"/>
<path d="M76.2088 182.996L68.4824 190.743" stroke="white" stroke-miterlimit="10"/>
<path d="M83.9334 175.591L76.207 183.331" stroke="white" stroke-miterlimit="10"/>
<path d="M76.207 182.996L83.9544 190.722" stroke="white" stroke-miterlimit="10"/>
<path d="M289.038 171.578L228.484 120.731C222.48 115.69 213.527 116.47 208.485 122.474L148.906 193.427C143.865 199.431 144.645 208.385 150.649 213.426L211.203 264.273C217.207 269.314 226.16 268.534 231.202 262.53L290.781 191.577C295.822 185.573 295.042 176.62 289.038 171.578Z" fill="#E7D8C9"/>
<path d="M279.148 177.81L224.056 131.552C220.673 128.711 215.626 129.151 212.785 132.535L166.525 187.623C163.684 191.007 164.124 196.053 167.508 198.894L222.599 245.152C225.982 247.993 231.029 247.553 233.87 244.17L280.13 189.081C282.971 185.697 282.531 180.651 279.148 177.81Z" fill="#E6BEAE"/>
<path d="M272.777 178.334L224.388 137.705C221.005 134.864 215.958 135.304 213.117 138.687L172.486 187.072C169.645 190.456 170.084 195.502 173.468 198.343L221.856 238.972C225.24 241.813 230.286 241.373 233.127 237.99L273.759 189.604C276.6 186.221 276.16 181.175 272.777 178.334Z" fill="#E7D8C9"/>
<path d="M244.358 192.043L228.239 178.509C226.547 177.088 224.024 177.308 222.603 179L218.7 183.648C217.28 185.339 217.5 187.862 219.191 189.283L235.31 202.817C237.002 204.238 239.525 204.018 240.946 202.326L244.849 197.678C246.27 195.986 246.05 193.463 244.358 192.043Z" fill="#E6BEAE"/>
<path d="M232.956 205.624L216.837 192.09C215.145 190.67 212.622 190.89 211.201 192.581L207.298 197.229C205.877 198.921 206.097 201.444 207.789 202.865L223.908 216.399C225.6 217.819 228.123 217.599 229.543 215.908L233.447 211.26C234.867 209.568 234.647 207.045 232.956 205.624Z" fill="#E6BEAE"/>
<path d="M223.688 150.451L221.587 148.687C219.895 147.266 217.372 147.486 215.951 149.178L209.155 157.271C207.734 158.963 207.954 161.486 209.646 162.906L211.747 164.671C213.439 166.091 215.963 165.872 217.383 164.18L224.179 156.086C225.6 154.395 225.38 151.872 223.688 150.451Z" fill="#F6F8FC"/>
<path d="M194.116 246.46C200.158 246.46 205.055 241.562 205.055 235.52C205.055 229.478 200.158 224.58 194.116 224.58C188.074 224.58 183.176 229.478 183.176 235.52C183.176 241.562 188.074 246.46 194.116 246.46Z" fill="#E6BEAE" stroke="white" stroke-miterlimit="10"/>
<path d="M192.768 220.111L185.732 228.488L194.111 235.523L201.146 227.145L192.768 220.111Z" fill="#E6BEAE" stroke="white" stroke-miterlimit="10"/>
<path d="M194.118 235.519L187.076 243.902" stroke="white" stroke-miterlimit="10"/>
<path d="M194.115 235.519L202.491 242.561" stroke="white" stroke-miterlimit="10"/>
<path d="M194.112 235.519L183.207 236.469" stroke="white" stroke-miterlimit="10"/>
<path d="M204.797 234.834L193.893 235.784" stroke="white" stroke-miterlimit="10"/>
<path d="M194.115 235.519L195.065 246.424" stroke="white" stroke-miterlimit="10"/>
<path d="M410.173 206.157L332.749 222.218C325.073 223.81 320.141 231.324 321.733 238.999L340.554 329.715C342.146 337.391 349.66 342.323 357.336 340.731L434.761 324.67C442.437 323.077 447.369 315.564 445.776 307.888L426.956 217.172C425.363 209.496 417.85 204.564 410.173 206.157Z" fill="#E7D8C9"/>
<path d="M409.004 218.311L338.566 232.923C334.239 233.82 331.46 238.055 332.358 242.381L346.97 312.814C347.868 317.14 352.102 319.92 356.428 319.022L426.866 304.41C431.193 303.513 433.972 299.278 433.075 294.952L418.462 224.519C417.565 220.193 413.33 217.414 409.004 218.311Z" fill="#E6BEAE"/>
<path d="M405.554 222.958L343.687 235.792C339.361 236.69 336.581 240.924 337.479 245.25L350.313 307.113C351.211 311.439 355.445 314.219 359.771 313.321L421.639 300.487C425.965 299.59 428.744 295.355 427.847 291.029L415.012 229.167C414.115 224.841 409.88 222.061 405.554 222.958Z" fill="#E7D8C9"/>
<path d="M398.582 253.919L377.973 258.194C375.81 258.642 374.42 260.76 374.869 262.923L376.102 268.866C376.551 271.029 378.668 272.418 380.831 271.97L401.44 267.695C403.603 267.246 404.993 265.129 404.544 262.966L403.311 257.023C402.862 254.86 400.745 253.47 398.582 253.919Z" fill="#E6BEAE"/>
<path d="M402.181 271.273L381.573 275.548C379.41 275.997 378.02 278.114 378.469 280.277L379.702 286.22C380.151 288.383 382.268 289.773 384.431 289.324L405.039 285.049C407.202 284.601 408.592 282.483 408.143 280.32L406.91 274.377C406.462 272.214 404.344 270.824 402.181 271.273Z" fill="#E6BEAE"/>
<path d="M353.121 244.385L350.434 244.942C348.271 245.391 346.881 247.508 347.33 249.671L349.477 260.019C349.926 262.182 352.043 263.572 354.206 263.123L356.893 262.566C359.056 262.117 360.446 260 359.997 257.837L357.85 247.489C357.402 245.326 355.284 243.936 353.121 244.385Z" fill="#F6F8FC"/>
<path d="M401.621 331.185C407.663 331.185 412.561 326.288 412.561 320.246C412.561 314.204 407.663 309.306 401.621 309.306C395.58 309.306 390.682 314.204 390.682 320.246C390.682 326.288 395.58 331.185 401.621 331.185Z" fill="#E6BEAE" stroke="white" stroke-miterlimit="10"/>
<path d="M399.376 309.578L388.664 311.8L390.886 322.512L401.598 320.29L399.376 309.578Z" fill="#E6BEAE" stroke="white" stroke-miterlimit="10"/>
<path d="M401.625 320.245L403.847 330.954" stroke="white" stroke-miterlimit="10"/>
<path d="M401.625 320.245L412.334 318.017" stroke="white" stroke-miterlimit="10"/>
<path d="M401.625 320.245L395.617 329.39" stroke="white" stroke-miterlimit="10"/>
<path d="M407.69 311.43L401.689 320.574" stroke="white" stroke-miterlimit="10"/>
<path d="M401.625 320.245L410.77 326.246" stroke="white" stroke-miterlimit="10"/>
<path d="M452.903 285.216L456.077 364.22C456.391 372.053 462.997 378.148 470.83 377.834L563.409 374.116C571.242 373.801 577.338 367.196 577.023 359.363L573.85 280.359C573.535 272.526 566.93 266.431 559.096 266.745L466.518 270.464C458.684 270.778 452.589 277.383 452.903 285.216Z" fill="#E7D8C9"/>
<path d="M464.169 288.331L467.056 360.206C467.233 364.62 470.956 368.055 475.371 367.878L547.25 364.991C551.665 364.814 555.1 361.091 554.923 356.677L552.036 284.802C551.859 280.388 548.136 276.953 543.721 277.13L471.841 280.017C467.427 280.194 463.992 283.917 464.169 288.331Z" fill="#E6BEAE"/>
<path d="M468.993 292.656L471.529 355.784C471.706 360.199 475.428 363.634 479.843 363.457L542.977 360.921C547.392 360.744 550.827 357.022 550.649 352.607L548.114 289.478C547.936 285.063 544.214 281.628 539.799 281.805L476.665 284.341C472.251 284.518 468.816 288.241 468.993 292.656Z" fill="#E7D8C9"/>
<path d="M498.124 304.471L498.968 325.5C499.057 327.708 500.918 329.425 503.126 329.337L509.19 329.093C511.398 329.004 513.115 327.143 513.027 324.936L512.182 303.907C512.093 301.699 510.232 299.982 508.025 300.071L501.96 300.314C499.753 300.403 498.035 302.264 498.124 304.471Z" fill="#E6BEAE"/>
<path d="M515.839 303.767L516.683 324.796C516.772 327.003 518.633 328.721 520.841 328.632L526.905 328.389C529.112 328.3 530.83 326.439 530.741 324.231L529.897 303.202C529.808 300.995 527.947 299.278 525.739 299.366L519.675 299.61C517.467 299.698 515.75 301.56 515.839 303.767Z" fill="#E6BEAE"/>
<path d="M481.274 347.757L481.384 350.499C481.473 352.706 483.334 354.424 485.542 354.335L496.102 353.911C498.309 353.822 500.026 351.961 499.938 349.754L499.828 347.012C499.739 344.804 497.878 343.087 495.67 343.175L485.11 343.599C482.903 343.688 481.186 345.549 481.274 347.757Z" fill="#F6F8FC"/>
<path d="M564.121 323.306C570.163 323.306 575.061 318.408 575.061 312.366C575.061 306.324 570.163 301.426 564.121 301.426C558.08 301.426 553.182 306.324 553.182 312.366C553.182 318.408 558.08 323.306 564.121 323.306Z" fill="#E6BEAE" stroke="white" stroke-miterlimit="10"/>
<path d="M564.128 312.343L553.197 312.782L553.636 323.713L564.567 323.274L564.128 312.343Z" fill="#E6BEAE" stroke="white" stroke-miterlimit="10"/>
<path d="M564.123 312.365L575.056 311.925" stroke="white" stroke-miterlimit="10"/>
<path d="M564.125 312.366L563.691 301.433" stroke="white" stroke-miterlimit="10"/>
<path d="M564.123 312.365L572.164 319.784" stroke="white" stroke-miterlimit="10"/>
<path d="M556.424 304.926L564.464 312.352" stroke="white" stroke-miterlimit="10"/>
<path d="M564.123 312.366L571.549 304.325" stroke="white" stroke-miterlimit="10"/>
<path d="M598.114 135.573L569.777 209.389C566.967 216.708 570.623 224.918 577.942 227.728L664.441 260.929C671.76 263.739 679.971 260.083 682.781 252.765L711.118 178.948C713.927 171.63 710.272 163.419 702.953 160.61L616.453 127.408C609.134 124.599 600.923 128.254 598.114 135.573Z" fill="#E7D8C9"/>
<path d="M598.114 135.573L569.777 209.389C566.967 216.708 570.623 224.918 577.942 227.728L664.441 260.93C671.76 263.739 679.971 260.084 682.781 252.765L711.118 178.949C713.927 171.63 710.272 163.42 702.953 160.61L616.453 127.408C609.134 124.599 600.923 128.255 598.114 135.573Z" fill="#E7D8C9"/>
<path d="M607.379 143.159L581.6 210.314C580.016 214.439 582.076 219.066 586.201 220.65L653.361 246.428C657.486 248.011 662.113 245.951 663.697 241.826L689.476 174.672C691.06 170.547 689 165.919 684.875 164.336L617.715 138.558C613.59 136.974 608.963 139.035 607.379 143.159Z" fill="#E6BEAE"/>
<path d="M609.756 148.546L587.113 207.529C585.53 211.654 587.59 216.281 591.715 217.864L650.703 240.506C654.827 242.089 659.455 240.029 661.038 235.904L683.681 176.921C685.265 172.796 683.205 168.169 679.08 166.586L620.092 143.944C615.967 142.36 611.34 144.421 609.756 148.546Z" fill="#E7D8C9"/>
<path d="M632.039 171.145L624.496 190.793C623.704 192.855 624.734 195.169 626.797 195.961L632.463 198.136C634.526 198.927 636.839 197.897 637.631 195.835L645.174 176.187C645.965 174.124 644.935 171.811 642.873 171.019L637.207 168.844C635.144 168.053 632.83 169.083 632.039 171.145Z" fill="#E6BEAE"/>
<path d="M648.595 177.499L641.053 197.147C640.261 199.209 641.291 201.523 643.353 202.314L649.02 204.489C651.082 205.281 653.396 204.251 654.188 202.188L661.73 182.54C662.522 180.478 661.492 178.164 659.43 177.373L653.763 175.198C651.701 174.406 649.387 175.436 648.595 177.499Z" fill="#E6BEAE"/>
<path d="M599.446 204.231L598.463 206.793C597.671 208.855 598.701 211.169 600.764 211.96L610.63 215.748C612.693 216.539 615.006 215.509 615.798 213.447L616.782 210.885C617.573 208.822 616.543 206.509 614.481 205.717L604.614 201.93C602.552 201.138 600.238 202.168 599.446 204.231Z" fill="#F6F8FC"/>
<path d="M689.545 215.444C695.587 215.444 700.485 210.546 700.485 204.504C700.485 198.462 695.587 193.564 689.545 193.564C683.503 193.564 678.605 198.462 678.605 204.504C678.605 210.546 683.503 215.444 689.545 215.444Z" fill="#E6BEAE" stroke="white" stroke-miterlimit="10"/>
<path d="M679.3 200.557L675.379 210.77L685.592 214.691L689.513 204.478L679.3 200.557Z" fill="#E6BEAE" stroke="white" stroke-miterlimit="10"/>
<path d="M689.549 204.504L699.762 208.423" stroke="white" stroke-miterlimit="10"/>
<path d="M689.549 204.504L693.468 194.291" stroke="white" stroke-miterlimit="10"/>
<path d="M689.549 204.504L693.999 214.5" stroke="white" stroke-miterlimit="10"/>
<path d="M685.412 194.626L689.862 204.623" stroke="white" stroke-miterlimit="10"/>
<path d="M689.549 204.504L699.546 200.054" stroke="white" stroke-miterlimit="10"/>
<path d="M-16.1234 274.484C-5.50188 274.484 3.1086 265.874 3.1086 255.253C3.1086 244.632 -5.50188 236.022 -16.1234 236.022C-26.745 236.022 -35.3555 244.632 -35.3555 255.253C-35.3555 265.874 -26.745 274.484 -16.1234 274.484Z" fill="url(#paint4_linear_295_4591)"/>
<path d="M-3.16605 256.204C2.51318 256.204 7.11712 251.6 7.11712 245.921C7.11712 240.242 2.51318 235.638 -3.16605 235.638C-8.84529 235.638 -13.4492 240.242 -13.4492 245.921C-13.4492 251.6 -8.84529 256.204 -3.16605 256.204Z" fill="url(#paint5_linear_295_4591)"/>
<path d="M-9.93363 280.66C-4.25439 280.66 0.349537 276.056 0.349537 270.377C0.349537 264.697 -4.25439 260.094 -9.93363 260.094C-15.6129 260.094 -20.2168 264.697 -20.2168 270.377C-20.2168 276.056 -15.6129 280.66 -9.93363 280.66Z" fill="url(#paint6_linear_295_4591)"/>
<path d="M79.7342 310.404C96.116 310.404 109.396 297.124 109.396 280.743C109.396 264.362 96.116 251.082 79.7342 251.082C63.3524 251.082 50.0723 264.362 50.0723 280.743C50.0723 297.124 63.3524 310.404 79.7342 310.404Z" fill="#BBCBB6"/>
<path d="M50.2887 291.018C59.0506 291.018 66.1535 283.916 66.1535 275.154C66.1535 266.393 59.0506 259.29 50.2887 259.29C41.5267 259.29 34.4238 266.393 34.4238 275.154C34.4238 283.916 41.5267 291.018 50.2887 291.018Z" fill="#BBCBB6"/>
<path d="M95.0211 271.347C103.783 271.347 110.886 264.245 110.886 255.483C110.886 246.722 103.783 239.619 95.0211 239.619C86.2592 239.619 79.1562 246.722 79.1562 255.483C79.1562 264.245 86.2592 271.347 95.0211 271.347Z" fill="#BBCBB6"/>
<path d="M104.199 293.771C112.961 293.771 120.064 286.668 120.064 277.907C120.064 269.145 112.961 262.042 104.199 262.042C95.4369 262.042 88.334 269.145 88.334 277.907C88.334 286.668 95.4369 293.771 104.199 293.771Z" fill="#BBCBB6"/>
<path d="M68.6656 277.9C77.4275 277.9 84.5305 270.797 84.5305 262.036C84.5305 253.274 77.4275 246.172 68.6656 246.172C59.9037 246.172 52.8008 253.274 52.8008 262.036C52.8008 270.797 59.9037 277.9 68.6656 277.9Z" fill="#BBCBB6"/>
<path d="M93.5367 319.065C102.299 319.065 109.402 311.962 109.402 303.201C109.402 294.439 102.299 287.337 93.5367 287.337C84.7748 287.337 77.6719 294.439 77.6719 303.201C77.6719 311.962 84.7748 319.065 93.5367 319.065Z" fill="#BBCBB6"/>
<path d="M66.1539 316.697C74.9158 316.697 82.0188 309.594 82.0188 300.833C82.0188 292.071 74.9158 284.969 66.1539 284.969C57.392 284.969 50.2891 292.071 50.2891 300.833C50.2891 309.594 57.392 316.697 66.1539 316.697Z" fill="#BBCBB6"/>
<path d="M333.608 189.535C346.73 189.535 357.367 178.898 357.367 165.777C357.367 152.656 346.73 142.019 333.608 142.019C320.487 142.019 309.85 152.656 309.85 165.777C309.85 178.898 320.487 189.535 333.608 189.535Z" fill="url(#paint7_linear_295_4591)"/>
<path d="M310.024 174.006C317.042 174.006 322.731 168.317 322.731 161.299C322.731 154.281 317.042 148.592 310.024 148.592C303.006 148.592 297.316 154.281 297.316 161.299C297.316 168.317 303.006 174.006 310.024 174.006Z" fill="url(#paint8_linear_295_4591)"/>
<path d="M345.85 158.254C352.868 158.254 358.557 152.565 358.557 145.547C358.557 138.529 352.868 132.84 345.85 132.84C338.832 132.84 333.143 138.529 333.143 145.547C333.143 152.565 338.832 158.254 345.85 158.254Z" fill="url(#paint9_linear_295_4591)"/>
<path d="M353.194 176.206C360.212 176.206 365.901 170.517 365.901 163.499C365.901 156.482 360.212 150.793 353.194 150.793C346.176 150.793 340.486 156.482 340.486 163.499C340.486 170.517 346.176 176.206 353.194 176.206Z" fill="url(#paint10_linear_295_4591)"/>
<path d="M324.735 163.5C331.753 163.5 337.442 157.811 337.442 150.793C337.442 143.776 331.753 138.087 324.735 138.087C317.717 138.087 312.027 143.776 312.027 150.793C312.027 157.811 317.717 163.5 324.735 163.5Z" fill="url(#paint11_linear_295_4591)"/>
<path d="M344.656 196.471C351.674 196.471 357.364 190.782 357.364 183.764C357.364 176.746 351.674 171.057 344.656 171.057C337.638 171.057 331.949 176.746 331.949 183.764C331.949 190.782 337.638 196.471 344.656 196.471Z" fill="url(#paint12_linear_295_4591)"/>
<path d="M322.735 194.571C329.753 194.571 335.442 188.882 335.442 181.864C335.442 174.846 329.753 169.157 322.735 169.157C315.717 169.157 310.027 174.846 310.027 181.864C310.027 188.882 315.717 194.571 322.735 194.571Z" fill="url(#paint13_linear_295_4591)"/>
<path d="M181.468 2.41639C194.59 2.41639 205.227 -8.22034 205.227 -21.3414C205.227 -34.4625 194.59 -45.0992 181.468 -45.0992C168.346 -45.0992 157.709 -34.4625 157.709 -21.3414C157.709 -8.22034 168.346 2.41639 181.468 2.41639Z" fill="url(#paint14_linear_295_4591)"/>
<path d="M192.516 9.35262C199.534 9.35262 205.223 3.66364 205.223 -3.35406C205.223 -10.3718 199.534 -16.0607 192.516 -16.0607C185.498 -16.0607 179.809 -10.3718 179.809 -3.35406C179.809 3.66364 185.498 9.35262 192.516 9.35262Z" fill="url(#paint15_linear_295_4591)"/>
<path d="M170.594 7.45956C177.612 7.45956 183.301 1.77058 183.301 -5.24712C183.301 -12.2648 177.612 -17.9538 170.594 -17.9538C163.576 -17.9538 157.887 -12.2648 157.887 -5.24712C157.887 1.77058 163.576 7.45956 170.594 7.45956Z" fill="url(#paint16_linear_295_4591)"/>
<path d="M218.593 13.5233C231.715 13.5233 242.352 2.88654 242.352 -10.2345C242.352 -23.3556 231.715 -33.9923 218.593 -33.9923C205.471 -33.9923 194.834 -23.3556 194.834 -10.2345C194.834 2.88654 205.471 13.5233 218.593 13.5233Z" fill="url(#paint17_linear_295_4591)"/>
<path d="M238.19 0.2015C245.208 0.2015 250.897 -5.48747 250.897 -12.5052C250.897 -19.5229 245.208 -25.2119 238.19 -25.2119C231.172 -25.2119 225.482 -19.5229 225.482 -12.5052C225.482 -5.48747 231.172 0.2015 238.19 0.2015Z" fill="url(#paint18_linear_295_4591)"/>
<path d="M229.653 20.4593C236.671 20.4593 242.36 14.7703 242.36 7.75264C242.36 0.734933 236.671 -4.95404 229.653 -4.95404C222.635 -4.95404 216.945 0.734933 216.945 7.75264C216.945 14.7703 222.635 20.4593 229.653 20.4593Z" fill="url(#paint19_linear_295_4591)"/>
<path d="M207.731 18.5661C214.749 18.5661 220.438 12.8772 220.438 5.85945C220.438 -1.15826 214.749 -6.84723 207.731 -6.84723C200.713 -6.84723 195.023 -1.15826 195.023 5.85945C195.023 12.8772 200.713 18.5661 207.731 18.5661Z" fill="url(#paint20_linear_295_4591)"/>
<path d="M96.1358 348.097C109.257 348.097 119.895 337.46 119.895 324.339C119.895 311.218 109.257 300.581 96.1358 300.581C83.0142 300.581 72.377 311.218 72.377 324.339C72.377 337.46 83.0142 348.097 96.1358 348.097Z" fill="url(#paint21_linear_295_4591)"/>
<path d="M72.551 332.568C79.569 332.568 85.2583 326.879 85.2583 319.861C85.2583 312.843 79.569 307.154 72.551 307.154C65.533 307.154 59.8438 312.843 59.8438 319.861C59.8438 326.879 65.533 332.568 72.551 332.568Z" fill="url(#paint22_linear_295_4591)"/>
<path d="M108.377 316.816C115.395 316.816 121.084 311.127 121.084 304.109C121.084 297.091 115.395 291.402 108.377 291.402C101.359 291.402 95.6699 297.091 95.6699 304.109C95.6699 311.127 101.359 316.816 108.377 316.816Z" fill="url(#paint23_linear_295_4591)"/>
<path d="M115.731 334.768C122.749 334.768 128.438 329.079 128.438 322.061C128.438 315.044 122.749 309.355 115.731 309.355C108.713 309.355 103.023 315.044 103.023 322.061C103.023 329.079 108.713 334.768 115.731 334.768Z" fill="url(#paint24_linear_295_4591)"/>
<path d="M87.2717 322.062C94.2897 322.062 99.979 316.373 99.979 309.355C99.979 302.338 94.2897 296.649 87.2717 296.649C80.2537 296.649 74.5645 302.338 74.5645 309.355C74.5645 316.373 80.2537 322.062 87.2717 322.062Z" fill="url(#paint25_linear_295_4591)"/>
<path d="M107.184 355.033C114.202 355.033 119.891 349.344 119.891 342.326C119.891 335.308 114.202 329.619 107.184 329.619C100.166 329.619 94.4766 335.308 94.4766 342.326C94.4766 349.344 100.166 355.033 107.184 355.033Z" fill="url(#paint26_linear_295_4591)"/>
<path d="M85.2619 353.133C92.28 353.133 97.9692 347.444 97.9692 340.426C97.9692 333.408 92.28 327.719 85.2619 327.719C78.2439 327.719 72.5547 333.408 72.5547 340.426C72.5547 347.444 78.2439 353.133 85.2619 353.133Z" fill="url(#paint27_linear_295_4591)"/>
<path d="M313.22 374.404C326.341 374.404 336.979 363.767 336.979 350.646C336.979 337.525 326.341 326.888 313.22 326.888C300.098 326.888 289.461 337.525 289.461 350.646C289.461 363.767 300.098 374.404 313.22 374.404Z" fill="url(#paint28_linear_295_4591)"/>
<path d="M289.635 358.875C296.653 358.875 302.342 353.186 302.342 346.168C302.342 339.15 296.653 333.461 289.635 333.461C282.617 333.461 276.928 339.15 276.928 346.168C276.928 353.186 282.617 358.875 289.635 358.875Z" fill="url(#paint29_linear_295_4591)"/>
<path d="M325.461 343.123C332.479 343.123 338.168 337.434 338.168 330.416C338.168 323.398 332.479 317.709 325.461 317.709C318.443 317.709 312.754 323.398 312.754 330.416C312.754 337.434 318.443 343.123 325.461 343.123Z" fill="url(#paint30_linear_295_4591)"/>
<path d="M332.815 361.075C339.833 361.075 345.522 355.386 345.522 348.368C345.522 341.351 339.833 335.662 332.815 335.662C325.797 335.662 320.107 341.351 320.107 348.368C320.107 355.386 325.797 361.075 332.815 361.075Z" fill="url(#paint31_linear_295_4591)"/>
<path d="M304.356 348.369C311.374 348.369 317.063 342.68 317.063 335.662C317.063 328.645 311.374 322.956 304.356 322.956C297.338 322.956 291.648 328.645 291.648 335.662C291.648 342.68 297.338 348.369 304.356 348.369Z" fill="url(#paint32_linear_295_4591)"/>
<path d="M324.268 381.34C331.286 381.34 336.975 375.651 336.975 368.633C336.975 361.615 331.286 355.926 324.268 355.926C317.25 355.926 311.561 361.615 311.561 368.633C311.561 375.651 317.25 381.34 324.268 381.34Z" fill="url(#paint33_linear_295_4591)"/>
<path d="M302.346 379.44C309.364 379.44 315.053 373.751 315.053 366.733C315.053 359.715 309.364 354.026 302.346 354.026C295.328 354.026 289.639 359.715 289.639 366.733C289.639 373.751 295.328 379.44 302.346 379.44Z" fill="url(#paint34_linear_295_4591)"/>
<path d="M715.495 341.307C728.617 341.307 739.254 330.67 739.254 317.549C739.254 304.428 728.617 293.791 715.495 293.791C702.374 293.791 691.736 304.428 691.736 317.549C691.736 330.67 702.374 341.307 715.495 341.307Z" fill="#BBCBB6"/>
<path d="M691.91 325.778C698.928 325.778 704.618 320.089 704.618 313.071C704.618 306.053 698.928 300.364 691.91 300.364C684.892 300.364 679.203 306.053 679.203 313.071C679.203 320.089 684.892 325.778 691.91 325.778Z" fill="#BBCBB6"/>
<path d="M727.737 310.025C734.755 310.025 740.444 304.336 740.444 297.319C740.444 290.301 734.755 284.612 727.737 284.612C720.719 284.612 715.029 290.301 715.029 297.319C715.029 304.336 720.719 310.025 727.737 310.025Z" fill="#BBCBB6"/>
<path d="M706.631 315.272C713.649 315.272 719.338 309.583 719.338 302.565C719.338 295.547 713.649 289.858 706.631 289.858C699.613 289.858 693.924 295.547 693.924 302.565C693.924 309.583 699.613 315.272 706.631 315.272Z" fill="#BBCBB6"/>
<path d="M726.543 348.243C733.561 348.243 739.25 342.554 739.25 335.536C739.25 328.518 733.561 322.829 726.543 322.829C719.525 322.829 713.836 328.518 713.836 335.536C713.836 342.554 719.525 348.243 726.543 348.243Z" fill="#BBCBB6"/>
<path d="M704.621 346.342C711.639 346.342 717.329 340.654 717.329 333.636C717.329 326.618 711.639 320.929 704.621 320.929C697.603 320.929 691.914 326.618 691.914 333.636C691.914 340.654 697.603 346.342 704.621 346.342Z" fill="#BBCBB6"/>
<path d="M654.144 426.061C667.265 426.061 677.902 415.424 677.902 402.303C677.902 389.182 667.265 378.545 654.144 378.545C641.022 378.545 630.385 389.182 630.385 402.303C630.385 415.424 641.022 426.061 654.144 426.061Z" fill="#BBCBB6"/>
<path d="M630.559 410.532C637.577 410.532 643.266 404.843 643.266 397.825C643.266 390.807 637.577 385.118 630.559 385.118C623.541 385.118 617.852 390.807 617.852 397.825C617.852 404.843 623.541 410.532 630.559 410.532Z" fill="#BBCBB6"/>
<path d="M666.385 394.78C673.403 394.78 679.092 389.091 679.092 382.073C679.092 375.055 673.403 369.366 666.385 369.366C659.367 369.366 653.678 375.055 653.678 382.073C653.678 389.091 659.367 394.78 666.385 394.78Z" fill="#BBCBB6"/>
<path d="M673.729 412.732C680.747 412.732 686.436 407.043 686.436 400.025C686.436 393.008 680.747 387.319 673.729 387.319C666.711 387.319 661.021 393.008 661.021 400.025C661.021 407.043 666.711 412.732 673.729 412.732Z" fill="#BBCBB6"/>
<path d="M645.279 400.026C652.298 400.026 657.987 394.337 657.987 387.319C657.987 380.302 652.298 374.613 645.279 374.613C638.261 374.613 632.572 380.302 632.572 387.319C632.572 394.337 638.261 400.026 645.279 400.026Z" fill="#BBCBB6"/>
<path d="M665.192 432.997C672.21 432.997 677.899 427.308 677.899 420.29C677.899 413.273 672.21 407.584 665.192 407.584C658.174 407.584 652.484 413.273 652.484 420.29C652.484 427.308 658.174 432.997 665.192 432.997Z" fill="#BBCBB6"/>
<path d="M643.27 431.097C650.288 431.097 655.977 425.408 655.977 418.39C655.977 411.372 650.288 405.683 643.27 405.683C636.252 405.683 630.562 411.372 630.562 418.39C630.562 425.408 636.252 431.097 643.27 431.097Z" fill="#BBCBB6"/>
<path d="M521.737 85.4728C534.859 85.4728 545.496 74.836 545.496 61.715C545.496 48.5939 534.859 37.9572 521.737 37.9572C508.616 37.9572 497.979 48.5939 497.979 61.715C497.979 74.836 508.616 85.4728 521.737 85.4728Z" fill="#BBCBB6"/>
<path d="M498.153 69.9442C505.171 69.9442 510.86 64.2552 510.86 57.2375C510.86 50.2198 505.171 44.5308 498.153 44.5308C491.135 44.5308 485.445 50.2198 485.445 57.2375C485.445 64.2552 491.135 69.9442 498.153 69.9442Z" fill="#BBCBB6"/>
<path d="M533.979 54.1988C540.997 54.1988 546.686 48.5098 546.686 41.4921C546.686 34.4744 540.997 28.7854 533.979 28.7854C526.961 28.7854 521.271 34.4744 521.271 41.4921C521.271 48.5098 526.961 54.1988 533.979 54.1988Z" fill="#BBCBB6"/>
<path d="M541.322 72.1512C548.34 72.1512 554.03 66.4622 554.03 59.4445C554.03 52.4268 548.34 46.7379 541.322 46.7379C534.304 46.7379 528.615 52.4268 528.615 59.4445C528.615 66.4622 534.304 72.1512 541.322 72.1512Z" fill="#BBCBB6"/>
<path d="M512.873 59.4451C519.891 59.4451 525.581 53.7561 525.581 46.7384C525.581 39.7207 519.891 34.0317 512.873 34.0317C505.855 34.0317 500.166 39.7207 500.166 46.7384C500.166 53.7561 505.855 59.4451 512.873 59.4451Z" fill="#BBCBB6"/>
<path d="M532.785 92.409C539.803 92.409 545.493 86.72 545.493 79.7023C545.493 72.6846 539.803 66.9957 532.785 66.9957C525.767 66.9957 520.078 72.6846 520.078 79.7023C520.078 86.72 525.767 92.409 532.785 92.409Z" fill="#BBCBB6"/>
<path d="M510.863 90.516C517.881 90.516 523.571 84.827 523.571 77.8093C523.571 70.7916 517.881 65.1026 510.863 65.1026C503.845 65.1026 498.156 70.7916 498.156 77.8093C498.156 84.827 503.845 90.516 510.863 90.516Z" fill="#BBCBB6"/>
<path d="M52.9796 359.371C66.1012 359.371 76.7384 348.734 76.7384 335.613C76.7384 322.492 66.1012 311.855 52.9796 311.855C39.8579 311.855 29.2207 322.492 29.2207 335.613C29.2207 348.734 39.8579 359.371 52.9796 359.371Z" fill="url(#paint35_linear_295_4591)"/>
<path d="M29.3948 343.842C36.4128 343.842 42.102 338.153 42.102 331.136C42.102 324.118 36.4128 318.429 29.3948 318.429C22.3767 318.429 16.6875 324.118 16.6875 331.136C16.6875 338.153 22.3767 343.842 29.3948 343.842Z" fill="url(#paint36_linear_295_4591)"/>
<path d="M65.2209 328.09C72.2389 328.09 77.9282 322.401 77.9282 315.383C77.9282 308.366 72.2389 302.677 65.2209 302.677C58.2029 302.677 52.5137 308.366 52.5137 315.383C52.5137 322.401 58.2029 328.09 65.2209 328.09Z" fill="url(#paint37_linear_295_4591)"/>
<path d="M72.5647 346.042C79.5827 346.042 85.2719 340.353 85.2719 333.336C85.2719 326.318 79.5827 320.629 72.5647 320.629C65.5467 320.629 59.8574 326.318 59.8574 333.336C59.8574 340.353 65.5467 346.042 72.5647 346.042Z" fill="url(#paint38_linear_295_4591)"/>
<path d="M44.1155 333.336C51.1335 333.336 56.8227 327.647 56.8227 320.63C56.8227 313.612 51.1335 307.923 44.1155 307.923C37.0974 307.923 31.4082 313.612 31.4082 320.63C31.4082 327.647 37.0974 333.336 44.1155 333.336Z" fill="url(#paint39_linear_295_4591)"/>
<path d="M64.0275 366.307C71.0455 366.307 76.7348 360.618 76.7348 353.6C76.7348 346.583 71.0455 340.894 64.0275 340.894C57.0095 340.894 51.3203 346.583 51.3203 353.6C51.3203 360.618 57.0095 366.307 64.0275 366.307Z" fill="url(#paint40_linear_295_4591)"/>
<path d="M42.1057 364.407C49.1237 364.407 54.8129 358.718 54.8129 351.7C54.8129 344.683 49.1237 338.994 42.1057 338.994C35.0877 338.994 29.3984 344.683 29.3984 351.7C29.3984 358.718 35.0877 364.407 42.1057 364.407Z" fill="url(#paint41_linear_295_4591)"/>
<path d="M552.183 114.888C565.304 114.888 575.942 104.252 575.942 91.1307C575.942 78.0096 565.304 67.3729 552.183 67.3729C539.061 67.3729 528.424 78.0096 528.424 91.1307C528.424 104.252 539.061 114.888 552.183 114.888Z" fill="url(#paint42_linear_295_4591)"/>
<path d="M528.598 99.3597C535.616 99.3597 541.305 93.6707 541.305 86.653C541.305 79.6353 535.616 73.9463 528.598 73.9463C521.58 73.9463 515.891 79.6353 515.891 86.653C515.891 93.6707 521.58 99.3597 528.598 99.3597Z" fill="url(#paint43_linear_295_4591)"/>
<path d="M564.428 83.6074C571.446 83.6074 577.135 77.9184 577.135 70.9007C577.135 63.883 571.446 58.194 564.428 58.194C557.41 58.194 551.721 63.883 551.721 70.9007C551.721 77.9184 557.41 83.6074 564.428 83.6074Z" fill="url(#paint44_linear_295_4591)"/>
<path d="M571.778 101.56C578.796 101.56 584.485 95.8709 584.485 88.8532C584.485 81.8355 578.796 76.1465 571.778 76.1465C564.76 76.1465 559.07 81.8355 559.07 88.8532C559.07 95.8709 564.76 101.56 571.778 101.56Z" fill="url(#paint45_linear_295_4591)"/>
<path d="M543.319 88.8537C550.337 88.8537 556.026 83.1647 556.026 76.147C556.026 69.1293 550.337 63.4404 543.319 63.4404C536.301 63.4404 530.611 69.1293 530.611 76.147C530.611 83.1647 536.301 88.8537 543.319 88.8537Z" fill="url(#paint46_linear_295_4591)"/>
<path d="M563.24 121.825C570.258 121.825 575.948 116.136 575.948 109.118C575.948 102.1 570.258 96.4113 563.24 96.4113C556.222 96.4113 550.533 102.1 550.533 109.118C550.533 116.136 556.222 121.825 563.24 121.825Z" fill="url(#paint47_linear_295_4591)"/>
<path d="M541.315 119.925C548.333 119.925 554.022 114.236 554.022 107.218C554.022 100.2 548.333 94.5112 541.315 94.5112C534.297 94.5112 528.607 100.2 528.607 107.218C528.607 114.236 534.297 119.925 541.315 119.925Z" fill="url(#paint48_linear_295_4591)"/>
<path d="M404.337 18.2237C424.862 18.2237 441.501 1.58551 441.501 -18.9387C441.501 -39.463 424.862 -56.1011 404.337 -56.1011C383.811 -56.1011 367.172 -39.463 367.172 -18.9387C367.172 1.58551 383.811 18.2237 404.337 18.2237Z" fill="url(#paint49_linear_295_4591)"/>
<path d="M433.383 11.3296C444.359 11.3296 453.257 2.43174 453.257 -8.54427C453.257 -19.5203 444.359 -28.4181 433.383 -28.4181C422.406 -28.4181 413.508 -19.5203 413.508 -8.54427C413.508 2.43174 422.406 11.3296 433.383 11.3296Z" fill="url(#paint50_linear_295_4591)"/>
<path d="M407.359 33.8226C418.336 33.8226 427.234 24.9248 427.234 13.9488C427.234 2.97276 418.336 -5.92505 407.359 -5.92505C396.383 -5.92505 387.484 2.97276 387.484 13.9488C387.484 24.9248 396.383 33.8226 407.359 33.8226Z" fill="url(#paint51_linear_295_4591)"/>
<path d="M377.927 15.9609C388.904 15.9609 397.802 7.06311 397.802 -3.9129C397.802 -14.8889 388.904 -23.7867 377.927 -23.7867C366.951 -23.7867 358.053 -14.8889 358.053 -3.9129C358.053 7.06311 366.951 15.9609 377.927 15.9609Z" fill="url(#paint52_linear_295_4591)"/>
<path d="M446.059 136.459C455.519 136.459 463.188 128.791 463.188 119.331C463.188 109.871 455.519 102.202 446.059 102.202C436.599 102.202 428.93 109.871 428.93 119.331C428.93 128.791 436.599 136.459 446.059 136.459Z" fill="#BBCBB6"/>
<path d="M429.067 125.262C434.125 125.262 438.225 121.162 438.225 116.104C438.225 111.046 434.125 106.945 429.067 106.945C424.009 106.945 419.908 111.046 419.908 116.104C419.908 121.162 424.009 125.262 429.067 125.262Z" fill="#BBCBB6"/>
<path d="M454.893 113.911C459.951 113.911 464.051 109.811 464.051 104.752C464.051 99.6944 459.951 95.594 454.893 95.594C449.835 95.594 445.734 99.6944 445.734 104.752C445.734 109.811 449.835 113.911 454.893 113.911Z" fill="#BBCBB6"/>
<path d="M460.192 126.855C465.25 126.855 469.35 122.755 469.35 117.697C469.35 112.639 465.25 108.538 460.192 108.538C455.134 108.538 451.033 112.639 451.033 117.697C451.033 122.755 455.134 126.855 460.192 126.855Z" fill="#BBCBB6"/>
<path d="M439.672 117.69C444.73 117.69 448.831 113.59 448.831 108.532C448.831 103.474 444.73 99.3733 439.672 99.3733C434.614 99.3733 430.514 103.474 430.514 108.532C430.514 113.59 434.614 117.69 439.672 117.69Z" fill="#BBCBB6"/>
<path d="M454.035 141.461C459.093 141.461 463.194 137.361 463.194 132.303C463.194 127.245 459.093 123.145 454.035 123.145C448.977 123.145 444.877 127.245 444.877 132.303C444.877 137.361 448.977 141.461 454.035 141.461Z" fill="#BBCBB6"/>
<path d="M438.227 140.092C443.285 140.092 447.385 135.992 447.385 130.934C447.385 125.876 443.285 121.775 438.227 121.775C433.169 121.775 429.068 125.876 429.068 130.934C429.068 135.992 433.169 140.092 438.227 140.092Z" fill="#BBCBB6"/>
<path d="M371.311 49.414C380.771 49.414 388.44 41.7453 388.44 32.2855C388.44 22.8257 380.771 15.157 371.311 15.157C361.851 15.157 354.182 22.8257 354.182 32.2855C354.182 41.7453 361.851 49.414 371.311 49.414Z" fill="#BBCBB6"/>
<path d="M354.309 38.2171C359.367 38.2171 363.467 34.1167 363.467 29.0587C363.467 24.0006 359.367 19.9002 354.309 19.9002C349.251 19.9002 345.15 24.0006 345.15 29.0587C345.15 34.1167 349.251 38.2171 354.309 38.2171Z" fill="#BBCBB6"/>
<path d="M380.135 26.8586C385.193 26.8586 389.293 22.7583 389.293 17.7002C389.293 12.6421 385.193 8.54175 380.135 8.54175C375.077 8.54175 370.977 12.6421 370.977 17.7002C370.977 22.7583 375.077 26.8586 380.135 26.8586Z" fill="#BBCBB6"/>
<path d="M385.44 39.8029C390.498 39.8029 394.598 35.7025 394.598 30.6445C394.598 25.5864 390.498 21.486 385.44 21.486C380.382 21.486 376.281 25.5864 376.281 30.6445C376.281 35.7025 380.382 39.8029 385.44 39.8029Z" fill="#BBCBB6"/>
<path d="M364.92 30.6379C369.978 30.6379 374.079 26.5376 374.079 21.4795C374.079 16.4214 369.978 12.321 364.92 12.321C359.862 12.321 355.762 16.4214 355.762 21.4795C355.762 26.5376 359.862 30.6379 364.92 30.6379Z" fill="#BBCBB6"/>
<path d="M379.278 54.4091C384.336 54.4091 388.436 50.3087 388.436 45.2507C388.436 40.1926 384.336 36.0922 379.278 36.0922C374.22 36.0922 370.119 40.1926 370.119 45.2507C370.119 50.3087 374.22 54.4091 379.278 54.4091Z" fill="#BBCBB6"/>
<path d="M363.469 53.0399C368.527 53.0399 372.627 48.9395 372.627 43.8814C372.627 38.8233 368.527 34.723 363.469 34.723C358.411 34.723 354.311 38.8233 354.311 43.8814C354.311 48.9395 358.411 53.0399 363.469 53.0399Z" fill="#BBCBB6"/>
<path d="M263.127 54.7439C272.588 54.7439 280.257 47.0752 280.257 37.6154C280.257 28.1556 272.588 20.4869 263.127 20.4869C253.667 20.4869 245.998 28.1556 245.998 37.6154C245.998 47.0752 253.667 54.7439 263.127 54.7439Z" fill="#BBCBB6"/>
<path d="M253.182 32.6146C258.24 32.6146 262.34 28.5142 262.34 23.4562C262.34 18.3981 258.24 14.2977 253.182 14.2977C248.124 14.2977 244.023 18.3981 244.023 23.4562C244.023 28.5142 248.124 32.6146 253.182 32.6146Z" fill="#BBCBB6"/>
<path d="M279.621 42.4712C284.679 42.4712 288.78 38.3709 288.78 33.3128C288.78 28.2547 284.679 24.1544 279.621 24.1544C274.563 24.1544 270.463 28.2547 270.463 33.3128C270.463 38.3709 274.563 42.4712 279.621 42.4712Z" fill="#BBCBB6"/>
<path d="M274.397 55.443C279.455 55.443 283.555 51.3426 283.555 46.2845C283.555 41.2265 279.455 37.1261 274.397 37.1261C269.339 37.1261 265.238 41.2265 265.238 46.2845C265.238 51.3426 269.339 55.443 274.397 55.443Z" fill="#BBCBB6"/>
<path d="M266.071 34.5775C271.129 34.5775 275.229 30.4771 275.229 25.4191C275.229 20.361 271.129 16.2606 266.071 16.2606C261.012 16.2606 256.912 20.361 256.912 25.4191C256.912 30.4771 261.012 34.5775 266.071 34.5775Z" fill="#BBCBB6"/>
<path d="M259.805 61.6321C264.863 61.6321 268.963 57.5318 268.963 52.4737C268.963 47.4156 264.863 43.3152 259.805 43.3152C254.747 43.3152 250.646 47.4156 250.646 52.4737C250.646 57.5318 254.747 61.6321 259.805 61.6321Z" fill="#BBCBB6"/>
<path d="M249.422 49.6311C254.48 49.6311 258.581 45.5307 258.581 40.4727C258.581 35.4146 254.48 31.3142 249.422 31.3142C244.364 31.3142 240.264 35.4146 240.264 40.4727C240.264 45.5307 244.364 49.6311 249.422 49.6311Z" fill="#BBCBB6"/>
<path d="M301.68 447.355C299.232 456.492 304.655 465.884 313.792 468.333C322.93 470.781 332.323 465.358 334.771 456.221C337.22 447.083 331.797 437.691 322.66 435.243C313.522 432.794 304.129 438.217 301.68 447.355Z" fill="#BBCBB6"/>
<path d="M325.632 443.478C324.323 448.363 327.222 453.385 332.108 454.694C336.994 456.003 342.016 453.104 343.325 448.218C344.634 443.332 341.735 438.311 336.849 437.002C331.963 435.693 326.941 438.592 325.632 443.478Z" fill="#BBCBB6"/>
<path d="M309.267 466.461C307.957 471.347 310.857 476.369 315.742 477.678C320.628 478.987 325.65 476.087 326.959 471.202C328.269 466.316 325.369 461.294 320.484 459.985C315.598 458.676 310.576 461.576 309.267 466.461Z" fill="#BBCBB6"/>
<path d="M298.089 458.058C296.78 462.944 299.679 467.965 304.565 469.274C309.45 470.583 314.473 467.684 315.782 462.798C317.091 457.913 314.192 452.891 309.306 451.582C304.42 450.273 299.398 453.172 298.089 458.058Z" fill="#BBCBB6"/>
<path d="M320.397 455.417C319.088 460.302 321.988 465.324 326.873 466.633C331.759 467.942 336.781 465.043 338.09 460.157C339.4 455.271 336.5 450.249 331.615 448.94C326.729 447.631 321.707 450.531 320.397 455.417Z" fill="#BBCBB6"/>
<path d="M295.886 442.363C294.577 447.248 297.476 452.27 302.362 453.579C307.247 454.888 312.269 451.989 313.579 447.103C314.888 442.217 311.989 437.195 307.103 435.886C302.217 434.577 297.195 437.477 295.886 442.363Z" fill="#BBCBB6"/>
<path d="M310.167 435.44C308.858 440.326 311.757 445.348 316.643 446.657C321.529 447.966 326.551 445.067 327.86 440.181C329.169 435.295 326.27 430.273 321.384 428.964C316.498 427.655 311.476 430.555 310.167 435.44Z" fill="#BBCBB6"/>
<path d="M628.969 351.345C638.429 351.345 646.098 343.676 646.098 334.216C646.098 324.756 638.429 317.088 628.969 317.088C619.509 317.088 611.84 324.756 611.84 334.216C611.84 343.676 619.509 351.345 628.969 351.345Z" fill="#BBCBB6"/>
<path d="M619.024 329.208C624.082 329.208 628.182 325.108 628.182 320.05C628.182 314.992 624.082 310.892 619.024 310.892C613.966 310.892 609.865 314.992 609.865 320.05C609.865 325.108 613.966 329.208 619.024 329.208Z" fill="#BBCBB6"/>
<path d="M645.463 339.072C650.521 339.072 654.622 334.972 654.622 329.914C654.622 324.856 650.521 320.755 645.463 320.755C640.405 320.755 636.305 324.856 636.305 329.914C636.305 334.972 640.405 339.072 645.463 339.072Z" fill="#BBCBB6"/>
<path d="M640.239 352.044C645.297 352.044 649.397 347.943 649.397 342.885C649.397 337.827 645.297 333.727 640.239 333.727C635.181 333.727 631.08 337.827 631.08 342.885C631.08 347.943 635.181 352.044 640.239 352.044Z" fill="#BBCBB6"/>
<path d="M631.916 331.179C636.974 331.179 641.075 327.078 641.075 322.02C641.075 316.962 636.974 312.862 631.916 312.862C626.858 312.862 622.758 316.962 622.758 322.02C622.758 327.078 626.858 331.179 631.916 331.179Z" fill="#BBCBB6"/>
<path d="M625.647 358.226C630.705 358.226 634.805 354.125 634.805 349.067C634.805 344.009 630.705 339.909 625.647 339.909C620.589 339.909 616.488 344.009 616.488 349.067C616.488 354.125 620.589 358.226 625.647 358.226Z" fill="#BBCBB6"/>
<path d="M615.264 346.232C620.322 346.232 624.422 342.132 624.422 337.073C624.422 332.015 620.322 327.915 615.264 327.915C610.206 327.915 606.105 332.015 606.105 337.073C606.105 342.132 610.206 346.232 615.264 346.232Z" fill="#BBCBB6"/>
<path d="M127.328 314.469C137.949 314.469 146.56 305.859 146.56 295.238C146.56 284.617 137.949 276.007 127.328 276.007C116.706 276.007 108.096 284.617 108.096 295.238C108.096 305.859 116.706 314.469 127.328 314.469Z" fill="url(#paint53_linear_295_4591)"/>
<path d="M141.139 291.851C146.818 291.851 151.422 287.247 151.422 281.567C151.422 275.888 146.818 271.284 141.139 271.284C135.459 271.284 130.855 275.888 130.855 281.567C130.855 287.247 135.459 291.851 141.139 291.851Z" fill="url(#paint54_linear_295_4591)"/>
<path d="M135.203 322.971C140.882 322.971 145.486 318.367 145.486 312.687C145.486 307.008 140.882 302.404 135.203 302.404C129.524 302.404 124.92 307.008 124.92 312.687C124.92 318.367 129.524 322.971 135.203 322.971Z" fill="url(#paint55_linear_295_4591)"/>
<path d="M119.855 319.624C125.535 319.624 130.139 315.021 130.139 309.341C130.139 303.662 125.535 299.058 119.855 299.058C114.176 299.058 109.572 303.662 109.572 309.341C109.572 315.021 114.176 319.624 119.855 319.624Z" fill="url(#paint56_linear_295_4591)"/>
<path d="M115.082 294.708C120.761 294.708 125.365 290.104 125.365 284.425C125.365 278.745 120.761 274.141 115.082 274.141C109.403 274.141 104.799 278.745 104.799 284.425C104.799 290.104 109.403 294.708 115.082 294.708Z" fill="url(#paint57_linear_295_4591)"/>
<path d="M421.751 433.067C427.738 421.392 423.125 407.074 411.449 401.087C399.773 395.101 385.454 399.714 379.467 411.39C373.48 423.066 378.092 437.384 389.769 443.37C401.445 449.356 415.764 444.743 421.751 433.067Z" fill="#BBCBB6"/>
<path d="M392.4 414.054C395.602 407.809 393.135 400.151 386.89 396.949C380.645 393.748 372.986 396.215 369.784 402.46C366.582 408.705 369.049 416.363 375.294 419.564C381.539 422.766 389.198 420.299 392.4 414.054Z" fill="#BBCBB6"/>
<path d="M431.529 414.812C434.731 408.567 432.264 400.909 426.019 397.707C419.774 394.505 412.115 396.972 408.913 403.217C405.711 409.462 408.178 417.12 414.423 420.322C420.668 423.524 428.327 421.057 431.529 414.812Z" fill="#BBCBB6"/>
<path d="M430.654 434.192C433.856 427.947 431.389 420.289 425.144 417.087C418.899 413.885 411.24 416.352 408.038 422.597C404.836 428.842 407.303 436.5 413.548 439.702C419.793 442.904 427.452 440.437 430.654 434.192Z" fill="#BBCBB6"/>
<path d="M410.169 410.706C413.371 404.462 410.905 396.804 404.659 393.602C398.414 390.4 390.756 392.867 387.554 399.112C384.352 405.357 386.819 413.015 393.064 416.217C399.309 419.418 406.967 416.951 410.169 410.706Z" fill="#BBCBB6"/>
<path d="M414.394 448.989C417.596 442.744 415.129 435.086 408.884 431.884C402.639 428.682 394.98 431.149 391.778 437.394C388.576 443.639 391.043 451.297 397.288 454.499C403.533 457.701 411.192 455.234 414.394 448.989Z" fill="#BBCBB6"/>
<path d="M395.294 438.058C398.496 431.813 396.029 424.155 389.784 420.953C383.539 417.751 375.881 420.218 372.679 426.463C369.477 432.708 371.944 440.366 378.189 443.568C384.434 446.769 392.092 444.302 395.294 438.058Z" fill="#BBCBB6"/>
<path d="M204.602 420.972C210.589 409.296 205.977 394.978 194.301 388.992C182.624 383.005 168.305 387.618 162.319 399.294C156.332 410.97 160.944 425.288 172.62 431.274C184.297 437.26 198.616 432.648 204.602 420.972Z" fill="#BBCBB6"/>
<path d="M175.249 401.958C178.452 395.713 175.985 388.055 169.74 384.853C163.494 381.652 155.836 384.119 152.634 390.364C149.432 396.609 151.899 404.267 158.144 407.468C164.389 410.67 172.047 408.203 175.249 401.958Z" fill="#BBCBB6"/>
<path d="M214.376 402.723C217.578 396.478 215.112 388.82 208.866 385.618C202.621 382.416 194.963 384.883 191.761 391.128C188.559 397.373 191.026 405.031 197.271 408.233C203.516 411.435 211.174 408.967 214.376 402.723Z" fill="#BBCBB6"/>
<path d="M213.503 422.096C216.705 415.851 214.239 408.193 207.993 404.991C201.748 401.789 194.09 404.257 190.888 410.501C187.686 416.746 190.153 424.404 196.398 427.606C202.643 430.808 210.301 428.341 213.503 422.096Z" fill="#BBCBB6"/>
<path d="M193.023 398.611C196.225 392.367 193.758 384.708 187.513 381.507C181.268 378.305 173.609 380.772 170.407 387.017C167.205 393.262 169.672 400.92 175.917 404.122C182.162 407.323 189.821 404.856 193.023 398.611Z" fill="#BBCBB6"/>
<path d="M197.242 436.899C200.444 430.654 197.977 422.996 191.732 419.795C185.486 416.593 177.828 419.06 174.626 425.305C171.424 431.55 173.891 439.208 180.136 442.41C186.381 445.611 194.039 443.144 197.242 436.899Z" fill="#BBCBB6"/>
<path d="M178.14 425.962C181.342 419.717 178.875 412.059 172.63 408.857C166.385 405.656 158.726 408.123 155.524 414.368C152.322 420.613 154.789 428.271 161.034 431.472C167.279 434.674 174.938 432.207 178.14 425.962Z" fill="#BBCBB6"/>
<path d="M458.263 417.701C463.109 408.249 459.375 396.659 449.924 391.813C440.472 386.967 428.881 390.701 424.035 400.153C419.188 409.604 422.922 421.195 432.374 426.04C441.826 430.886 453.416 427.152 458.263 417.701Z" fill="#BBCBB6"/>
<path d="M468.577 407.014C471.168 401.961 469.172 395.764 464.118 393.173C459.065 390.582 452.867 392.578 450.276 397.632C447.685 402.685 449.681 408.882 454.735 411.473C459.788 414.064 465.986 412.068 468.577 407.014Z" fill="#BBCBB6"/>
<path d="M450.103 432.758C452.694 427.704 450.697 421.507 445.644 418.916C440.59 416.325 434.392 418.322 431.801 423.375C429.21 428.429 431.206 434.626 436.26 437.217C441.314 439.808 447.511 437.812 450.103 432.758Z" fill="#BBCBB6"/>
<path d="M437.581 423.277C440.172 418.223 438.176 412.026 433.122 409.435C428.068 406.844 421.871 408.841 419.28 413.894C416.688 418.948 418.685 425.145 423.739 427.736C428.792 430.327 434.99 428.331 437.581 423.277Z" fill="#BBCBB6"/>
<path d="M443.728 398.662C446.319 393.609 444.323 387.412 439.269 384.821C434.215 382.23 428.017 384.226 425.426 389.28C422.835 394.334 424.831 400.531 429.885 403.122C434.939 405.713 441.136 403.716 443.728 398.662Z" fill="#BBCBB6"/>
<path d="M741.024 115C754.146 115 764.783 104.363 764.783 91.2422C764.783 78.1212 754.146 67.4844 741.024 67.4844C727.903 67.4844 717.266 78.1212 717.266 91.2422C717.266 104.363 727.903 115 741.024 115Z" fill="#BBCBB6"/>
<path d="M717.44 99.4714C724.458 99.4714 730.147 93.7825 730.147 86.7648C730.147 79.747 724.458 74.0581 717.44 74.0581C710.422 74.0581 704.732 79.747 704.732 86.7648C704.732 93.7825 710.422 99.4714 717.44 99.4714Z" fill="#BBCBB6"/>
<path d="M732.16 88.9653C739.178 88.9653 744.868 83.2763 744.868 76.2586C744.868 69.2409 739.178 63.5519 732.16 63.5519C725.142 63.5519 719.453 69.2409 719.453 76.2586C719.453 83.2763 725.142 88.9653 732.16 88.9653Z" fill="#BBCBB6"/>
<path d="M730.151 120.043C737.169 120.043 742.858 114.354 742.858 107.337C742.858 100.319 737.169 94.6298 730.151 94.6298C723.133 94.6298 717.443 100.319 717.443 107.337C717.443 114.354 723.133 120.043 730.151 120.043Z" fill="#BBCBB6"/>
<path d="M736.207 28.4161C746.828 28.4161 755.439 19.806 755.439 9.18496C755.439 -1.43612 746.828 -10.0462 736.207 -10.0462C725.585 -10.0462 716.975 -1.43612 716.975 9.18496C716.975 19.806 725.585 28.4161 736.207 28.4161Z" fill="#BBCBB6"/>
<path d="M719.932 20.8443C725.611 20.8443 730.215 16.2404 730.215 10.5611C730.215 4.88189 725.611 0.277954 719.932 0.277954C714.252 0.277954 709.648 4.88189 709.648 10.5611C709.648 16.2404 714.252 20.8443 719.932 20.8443Z" fill="#BBCBB6"/>
<path d="M352.459 83.6565C363.08 83.6565 371.691 75.0464 371.691 64.4253C371.691 53.8042 363.08 45.1942 352.459 45.1942C341.837 45.1942 333.227 53.8042 333.227 64.4253C333.227 75.0464 341.837 83.6565 352.459 83.6565Z" fill="url(#paint58_linear_295_4591)"/>
<path d="M366.269 61.0381C371.949 61.0381 376.553 56.4342 376.553 50.755C376.553 45.0757 371.949 40.4718 366.269 40.4718C360.59 40.4718 355.986 45.0757 355.986 50.755C355.986 56.4342 360.59 61.0381 366.269 61.0381Z" fill="url(#paint59_linear_295_4591)"/>
<path d="M360.334 92.1582C366.013 92.1582 370.617 87.5543 370.617 81.875C370.617 76.1958 366.013 71.5919 360.334 71.5919C354.655 71.5919 350.051 76.1958 350.051 81.875C350.051 87.5543 354.655 92.1582 360.334 92.1582Z" fill="url(#paint60_linear_295_4591)"/>
<path d="M344.986 88.8191C350.666 88.8191 355.269 84.2152 355.269 78.536C355.269 72.8567 350.666 68.2528 344.986 68.2528C339.307 68.2528 334.703 72.8567 334.703 78.536C334.703 84.2152 339.307 88.8191 344.986 88.8191Z" fill="url(#paint61_linear_295_4591)"/>
<path d="M340.213 63.8954C345.892 63.8954 350.496 59.2914 350.496 53.6122C350.496 47.933 345.892 43.329 340.213 43.329C334.534 43.329 329.93 47.933 329.93 53.6122C329.93 59.2914 334.534 63.8954 340.213 63.8954Z" fill="url(#paint62_linear_295_4591)"/>
<path d="M4.4275 41.1503C15.9326 41.1503 25.2593 31.8241 25.2593 20.3195C25.2593 8.81494 15.9326 -0.511353 4.4275 -0.511353C-7.07758 -0.511353 -16.4043 8.81494 -16.4043 20.3195C-16.4043 31.8241 -7.07758 41.1503 4.4275 41.1503Z" fill="#BBCBB6"/>
<path d="M25.2674 28.4656C31.4212 28.4656 36.4098 23.477 36.4098 17.3232C36.4098 11.1694 31.4212 6.18079 25.2674 6.18079C19.1136 6.18079 14.125 11.1694 14.125 17.3232C14.125 23.477 19.1136 28.4656 25.2674 28.4656Z" fill="#BBCBB6"/>
<path d="M0.0271978 51.7268C6.18099 51.7268 11.1696 46.7382 11.1696 40.5844C11.1696 34.4306 6.18099 29.442 0.0271978 29.442C-6.12659 29.442 -11.1152 34.4306 -11.1152 40.5844C-11.1152 46.7382 -6.12659 51.7268 0.0271978 51.7268Z" fill="#BBCBB6"/>
<path d="M0.732255 14.1523C6.88605 14.1523 11.8747 9.16364 11.8747 3.00985C11.8747 -3.14394 6.88605 -8.13257 0.732255 -8.13257C-5.42154 -8.13257 -10.4102 -3.14394 -10.4102 3.00985C-10.4102 9.16364 -5.42154 14.1523 0.732255 14.1523Z" fill="#BBCBB6"/>
<path d="M224.474 355.536C235.979 355.536 245.306 346.21 245.306 334.705C245.306 323.201 235.979 313.874 224.474 313.874C212.969 313.874 203.643 323.201 203.643 334.705C203.643 346.21 212.969 355.536 224.474 355.536Z" fill="#BBCBB6"/>
<path d="M238.166 361.837C244.32 361.837 249.308 356.849 249.308 350.695C249.308 344.541 244.32 339.553 238.166 339.553C232.012 339.553 227.023 344.541 227.023 350.695C227.023 356.849 232.012 361.837 238.166 361.837Z" fill="#BBCBB6"/>
<path d="M205.012 352.987C211.165 352.987 216.154 347.998 216.154 341.844C216.154 335.691 211.165 330.702 205.012 330.702C198.858 330.702 193.869 335.691 193.869 341.844C193.869 347.998 198.858 352.987 205.012 352.987Z" fill="#BBCBB6"/>
<path d="M209.818 336.662C215.972 336.662 220.961 331.674 220.961 325.52C220.961 319.366 215.972 314.377 209.818 314.377C203.664 314.377 198.676 319.366 198.676 325.52C198.676 331.674 203.664 336.662 209.818 336.662Z" fill="#BBCBB6"/>
<path d="M237.119 333.463C243.273 333.463 248.261 328.474 248.261 322.32C248.261 316.166 243.273 311.178 237.119 311.178C230.965 311.178 225.977 316.166 225.977 322.32C225.977 328.474 230.965 333.463 237.119 333.463Z" fill="#BBCBB6"/>
<path d="M70.0076 54.1992C81.5127 54.1992 90.8393 44.8729 90.8393 33.3684C90.8393 21.8638 81.5127 12.5375 70.0076 12.5375C58.5025 12.5375 49.1758 21.8638 49.1758 33.3684C49.1758 44.8729 58.5025 54.1992 70.0076 54.1992Z" fill="url(#paint63_linear_295_4591)"/>
<path d="M60.66 63.3716C66.8138 63.3716 71.8024 58.383 71.8024 52.2292C71.8024 46.0754 66.8138 41.0868 60.66 41.0868C54.5062 41.0868 49.5176 46.0754 49.5176 52.2292C49.5176 58.383 54.5062 63.3716 60.66 63.3716Z" fill="url(#paint64_linear_295_4591)"/>
<path d="M55.8124 29.3946C61.9661 29.3946 66.9547 24.406 66.9547 18.2522C66.9547 12.0984 61.9661 7.10974 55.8124 7.10974C49.6586 7.10974 44.6699 12.0984 44.6699 18.2522C44.6699 24.406 49.6586 29.3946 55.8124 29.3946Z" fill="url(#paint65_linear_295_4591)"/>
<path d="M72.7127 27.4246C78.8665 27.4246 83.8551 22.436 83.8551 16.2822C83.8551 10.1284 78.8665 5.13977 72.7127 5.13977C66.559 5.13977 61.5703 10.1284 61.5703 16.2822C61.5703 22.436 66.559 27.4246 72.7127 27.4246Z" fill="url(#paint66_linear_295_4591)"/>
<path d="M86.3553 51.2867C92.5091 51.2867 97.4978 46.2981 97.4978 40.1443C97.4978 33.9905 92.5091 29.0019 86.3553 29.0019C80.2015 29.0019 75.2129 33.9905 75.2129 40.1443C75.2129 46.2981 80.2015 51.2867 86.3553 51.2867Z" fill="url(#paint67_linear_295_4591)"/>
<path d="M167.991 106.638C177.158 106.638 184.589 99.2075 184.589 90.0409C184.589 80.8743 177.158 73.4432 167.991 73.4432C158.824 73.4432 151.393 80.8743 151.393 90.0409C151.393 99.2075 158.824 106.638 167.991 106.638Z" fill="url(#paint68_linear_295_4591)"/>
<path d="M160.545 113.953C165.449 113.953 169.424 109.978 169.424 105.074C169.424 100.17 165.449 96.1948 160.545 96.1948C155.641 96.1948 151.666 100.17 151.666 105.074C151.666 109.978 155.641 113.953 160.545 113.953Z" fill="url(#paint69_linear_295_4591)"/>
<path d="M156.682 86.8842C161.585 86.8842 165.561 82.9089 165.561 78.0052C165.561 73.1015 161.585 69.1262 156.682 69.1262C151.778 69.1262 147.803 73.1015 147.803 78.0052C147.803 82.9089 151.778 86.8842 156.682 86.8842Z" fill="url(#paint70_linear_295_4591)"/>
<path d="M170.145 85.3125C175.048 85.3125 179.024 81.3372 179.024 76.4334C179.024 71.5297 175.048 67.5544 170.145 67.5544C165.241 67.5544 161.266 71.5297 161.266 76.4334C161.266 81.3372 165.241 85.3125 170.145 85.3125Z" fill="url(#paint71_linear_295_4591)"/>
<path d="M181.022 104.32C185.925 104.32 189.901 100.345 189.901 95.4408C189.901 90.537 185.925 86.5618 181.022 86.5618C176.118 86.5618 172.143 90.537 172.143 95.4408C172.143 100.345 176.118 104.32 181.022 104.32Z" fill="url(#paint72_linear_295_4591)"/>
</g>
<defs>
<filter id="filter0_f_295_4591" x="-314.322" y="-5.83908" width="855.098" height="766.563" filterUnits="userSpaceOnUse" color-interpolation-filters="sRGB">
<feFlood flood-opacity="0" result="BackgroundImageFix"/>
<feBlend mode="normal" in="SourceGraphic" in2="BackgroundImageFix" result="shape"/>
<feGaussianBlur stdDeviation="177" result="effect1_foregroundBlur_295_4591"/>
</filter>
<filter id="filter1_f_295_4591" x="-652.062" y="-550.186" width="1208.32" height="957.503" filterUnits="userSpaceOnUse" color-interpolation-filters="sRGB">
<feFlood flood-opacity="0" result="BackgroundImageFix"/>
<feBlend mode="normal" in="SourceGraphic" in2="BackgroundImageFix" result="shape"/>
<feGaussianBlur stdDeviation="222" result="effect1_foregroundBlur_295_4591"/>
</filter>
<filter id="filter2_f_295_4591" x="89.2266" y="-476.821" width="1156.06" height="945.276" filterUnits="userSpaceOnUse" color-interpolation-filters="sRGB">
<feFlood flood-opacity="0" result="BackgroundImageFix"/>
<feBlend mode="normal" in="SourceGraphic" in2="BackgroundImageFix" result="shape"/>
<feGaussianBlur stdDeviation="222" result="effect1_foregroundBlur_295_4591"/>
</filter>
<filter id="filter3_f_295_4591" x="216.969" y="-95.8391" width="1156.06" height="982.602" filterUnits="userSpaceOnUse" color-interpolation-filters="sRGB">
<feFlood flood-opacity="0" result="BackgroundImageFix"/>
<feBlend mode="normal" in="SourceGraphic" in2="BackgroundImageFix" result="shape"/>
<feGaussianBlur stdDeviation="222" result="effect1_foregroundBlur_295_4591"/>
</filter>
<linearGradient id="paint0_linear_295_4591" x1="113.227" y1="348.161" x2="113.227" y2="406.724" gradientUnits="userSpaceOnUse">
<stop stop-color="#7EA373"/>
<stop offset="1" stop-color="#A6FA8C"/>
</linearGradient>
<linearGradient id="paint1_linear_295_4591" x1="-47.9015" y1="-106.186" x2="-47.9015" y2="-36.6822" gradientUnits="userSpaceOnUse">
<stop stop-color="#7EA373"/>
<stop offset="1" stop-color="#A6FA8C"/>
</linearGradient>
<linearGradient id="paint2_linear_295_4591" x1="667.259" y1="-32.8209" x2="667.259" y2="24.4551" gradientUnits="userSpaceOnUse">
<stop stop-color="#E7D8C9"/>
<stop offset="1" stop-color="#E6BEAE"/>
</linearGradient>
<linearGradient id="paint3_linear_295_4591" x1="795.001" y1="348.161" x2="795.001" y2="442.763" gradientUnits="userSpaceOnUse">
<stop stop-color="#E7D8C9"/>
<stop offset="1" stop-color="#E6BEAE"/>
</linearGradient>
<linearGradient id="paint4_linear_295_4591" x1="-16.1234" y1="236.022" x2="-16.1234" y2="274.484" gradientUnits="userSpaceOnUse">
<stop stop-color="#ECF0EA"/>
<stop offset="1" stop-color="#ECF0EA"/>
</linearGradient>
<linearGradient id="paint5_linear_295_4591" x1="-3.16605" y1="235.638" x2="-3.16605" y2="256.204" gradientUnits="userSpaceOnUse">
<stop stop-color="#ECF0EA"/>
<stop offset="1" stop-color="#ECF0EA"/>
</linearGradient>
<linearGradient id="paint6_linear_295_4591" x1="-9.93363" y1="260.094" x2="-9.93363" y2="280.66" gradientUnits="userSpaceOnUse">
<stop stop-color="#ECF0EA"/>
<stop offset="1" stop-color="#ECF0EA"/>
</linearGradient>
<linearGradient id="paint7_linear_295_4591" x1="333.608" y1="142.019" x2="333.608" y2="189.535" gradientUnits="userSpaceOnUse">
<stop stop-color="#ECF0EA"/>
<stop offset="1" stop-color="#ECF0EA"/>
</linearGradient>
<linearGradient id="paint8_linear_295_4591" x1="310.024" y1="148.592" x2="310.024" y2="174.006" gradientUnits="userSpaceOnUse">
<stop stop-color="#ECF0EA"/>
<stop offset="1" stop-color="#ECF0EA"/>
</linearGradient>
<linearGradient id="paint9_linear_295_4591" x1="345.85" y1="132.84" x2="345.85" y2="158.254" gradientUnits="userSpaceOnUse">
<stop stop-color="#ECF0EA"/>
<stop offset="1" stop-color="#ECF0EA"/>
</linearGradient>
<linearGradient id="paint10_linear_295_4591" x1="353.194" y1="150.793" x2="353.194" y2="176.206" gradientUnits="userSpaceOnUse">
<stop stop-color="#ECF0EA"/>
<stop offset="1" stop-color="#ECF0EA"/>
</linearGradient>
<linearGradient id="paint11_linear_295_4591" x1="324.735" y1="138.087" x2="324.735" y2="163.5" gradientUnits="userSpaceOnUse">
<stop stop-color="#ECF0EA"/>
<stop offset="1" stop-color="#ECF0EA"/>
</linearGradient>
<linearGradient id="paint12_linear_295_4591" x1="344.656" y1="171.057" x2="344.656" y2="196.471" gradientUnits="userSpaceOnUse">
<stop stop-color="#ECF0EA"/>
<stop offset="1" stop-color="#ECF0EA"/>
</linearGradient>
<linearGradient id="paint13_linear_295_4591" x1="322.735" y1="169.157" x2="322.735" y2="194.571" gradientUnits="userSpaceOnUse">
<stop stop-color="#ECF0EA"/>
<stop offset="1" stop-color="#ECF0EA"/>
</linearGradient>
<linearGradient id="paint14_linear_295_4591" x1="181.468" y1="-45.0992" x2="181.468" y2="2.41639" gradientUnits="userSpaceOnUse">
<stop stop-color="#ECF0EA"/>
<stop offset="1" stop-color="#ECF0EA"/>
</linearGradient>
<linearGradient id="paint15_linear_295_4591" x1="192.516" y1="-16.0607" x2="192.516" y2="9.35262" gradientUnits="userSpaceOnUse">
<stop stop-color="#ECF0EA"/>
<stop offset="1" stop-color="#ECF0EA"/>
</linearGradient>
<linearGradient id="paint16_linear_295_4591" x1="170.594" y1="-17.9538" x2="170.594" y2="7.45956" gradientUnits="userSpaceOnUse">
<stop stop-color="#ECF0EA"/>
<stop offset="1" stop-color="#ECF0EA"/>
</linearGradient>
<linearGradient id="paint17_linear_295_4591" x1="218.593" y1="-33.9923" x2="218.593" y2="13.5233" gradientUnits="userSpaceOnUse">
<stop stop-color="#ECF0EA"/>
<stop offset="1" stop-color="#ECF0EA"/>
</linearGradient>
<linearGradient id="paint18_linear_295_4591" x1="238.19" y1="-25.2119" x2="238.19" y2="0.201502" gradientUnits="userSpaceOnUse">
<stop stop-color="#ECF0EA"/>
<stop offset="1" stop-color="#ECF0EA"/>
</linearGradient>
<linearGradient id="paint19_linear_295_4591" x1="229.653" y1="-4.95404" x2="229.653" y2="20.4593" gradientUnits="userSpaceOnUse">
<stop stop-color="#ECF0EA"/>
<stop offset="1" stop-color="#ECF0EA"/>
</linearGradient>
<linearGradient id="paint20_linear_295_4591" x1="207.731" y1="-6.84723" x2="207.731" y2="18.5661" gradientUnits="userSpaceOnUse">
<stop stop-color="#ECF0EA"/>
<stop offset="1" stop-color="#ECF0EA"/>
</linearGradient>
<linearGradient id="paint21_linear_295_4591" x1="96.1358" y1="300.581" x2="96.1358" y2="348.097" gradientUnits="userSpaceOnUse">
<stop stop-color="#ECF0EA"/>
<stop offset="1" stop-color="#ECF0EA"/>
</linearGradient>
<linearGradient id="paint22_linear_295_4591" x1="72.551" y1="307.154" x2="72.551" y2="332.568" gradientUnits="userSpaceOnUse">
<stop stop-color="#ECF0EA"/>
<stop offset="1" stop-color="#ECF0EA"/>
</linearGradient>
<linearGradient id="paint23_linear_295_4591" x1="108.377" y1="291.402" x2="108.377" y2="316.816" gradientUnits="userSpaceOnUse">
<stop stop-color="#ECF0EA"/>
<stop offset="1" stop-color="#ECF0EA"/>
</linearGradient>
<linearGradient id="paint24_linear_295_4591" x1="115.731" y1="309.355" x2="115.731" y2="334.768" gradientUnits="userSpaceOnUse">
<stop stop-color="#ECF0EA"/>
<stop offset="1" stop-color="#ECF0EA"/>
</linearGradient>
<linearGradient id="paint25_linear_295_4591" x1="87.2717" y1="296.649" x2="87.2717" y2="322.062" gradientUnits="userSpaceOnUse">
<stop stop-color="#ECF0EA"/>
<stop offset="1" stop-color="#ECF0EA"/>
</linearGradient>
<linearGradient id="paint26_linear_295_4591" x1="107.184" y1="329.619" x2="107.184" y2="355.033" gradientUnits="userSpaceOnUse">
<stop stop-color="#ECF0EA"/>
<stop offset="1" stop-color="#ECF0EA"/>
</linearGradient>
<linearGradient id="paint27_linear_295_4591" x1="85.2619" y1="327.719" x2="85.2619" y2="353.133" gradientUnits="userSpaceOnUse">
<stop stop-color="#ECF0EA"/>
<stop offset="1" stop-color="#ECF0EA"/>
</linearGradient>
<linearGradient id="paint28_linear_295_4591" x1="313.22" y1="326.888" x2="313.22" y2="374.404" gradientUnits="userSpaceOnUse">
<stop stop-color="#ECF0EA"/>
<stop offset="1" stop-color="#ECF0EA"/>
</linearGradient>
<linearGradient id="paint29_linear_295_4591" x1="289.635" y1="333.461" x2="289.635" y2="358.875" gradientUnits="userSpaceOnUse">
<stop stop-color="#ECF0EA"/>
<stop offset="1" stop-color="#ECF0EA"/>
</linearGradient>
<linearGradient id="paint30_linear_295_4591" x1="325.461" y1="317.709" x2="325.461" y2="343.123" gradientUnits="userSpaceOnUse">
<stop stop-color="#ECF0EA"/>
<stop offset="1" stop-color="#ECF0EA"/>
</linearGradient>
<linearGradient id="paint31_linear_295_4591" x1="332.815" y1="335.662" x2="332.815" y2="361.075" gradientUnits="userSpaceOnUse">
<stop stop-color="#ECF0EA"/>
<stop offset="1" stop-color="#ECF0EA"/>
</linearGradient>
<linearGradient id="paint32_linear_295_4591" x1="304.356" y1="322.956" x2="304.356" y2="348.369" gradientUnits="userSpaceOnUse">
<stop stop-color="#ECF0EA"/>
<stop offset="1" stop-color="#ECF0EA"/>
</linearGradient>
<linearGradient id="paint33_linear_295_4591" x1="324.268" y1="355.926" x2="324.268" y2="381.34" gradientUnits="userSpaceOnUse">
<stop stop-color="#ECF0EA"/>
<stop offset="1" stop-color="#ECF0EA"/>
</linearGradient>
<linearGradient id="paint34_linear_295_4591" x1="302.346" y1="354.026" x2="302.346" y2="379.44" gradientUnits="userSpaceOnUse">
<stop stop-color="#ECF0EA"/>
<stop offset="1" stop-color="#ECF0EA"/>
</linearGradient>
<linearGradient id="paint35_linear_295_4591" x1="52.9795" y1="311.855" x2="52.9795" y2="359.371" gradientUnits="userSpaceOnUse">
<stop stop-color="#ECF0EA"/>
<stop offset="1" stop-color="#ECF0EA"/>
</linearGradient>
<linearGradient id="paint36_linear_295_4591" x1="29.3948" y1="318.429" x2="29.3948" y2="343.842" gradientUnits="userSpaceOnUse">
<stop stop-color="#ECF0EA"/>
<stop offset="1" stop-color="#ECF0EA"/>
</linearGradient>
<linearGradient id="paint37_linear_295_4591" x1="65.2209" y1="302.677" x2="65.2209" y2="328.09" gradientUnits="userSpaceOnUse">
<stop stop-color="#ECF0EA"/>
<stop offset="1" stop-color="#ECF0EA"/>
</linearGradient>
<linearGradient id="paint38_linear_295_4591" x1="72.5647" y1="320.629" x2="72.5647" y2="346.042" gradientUnits="userSpaceOnUse">
<stop stop-color="#ECF0EA"/>
<stop offset="1" stop-color="#ECF0EA"/>
</linearGradient>
<linearGradient id="paint39_linear_295_4591" x1="44.1155" y1="307.923" x2="44.1155" y2="333.336" gradientUnits="userSpaceOnUse">
<stop stop-color="#ECF0EA"/>
<stop offset="1" stop-color="#ECF0EA"/>
</linearGradient>
<linearGradient id="paint40_linear_295_4591" x1="64.0275" y1="340.894" x2="64.0275" y2="366.307" gradientUnits="userSpaceOnUse">
<stop stop-color="#ECF0EA"/>
<stop offset="1" stop-color="#ECF0EA"/>
</linearGradient>
<linearGradient id="paint41_linear_295_4591" x1="42.1057" y1="338.994" x2="42.1057" y2="364.407" gradientUnits="userSpaceOnUse">
<stop stop-color="#ECF0EA"/>
<stop offset="1" stop-color="#ECF0EA"/>
</linearGradient>
<linearGradient id="paint42_linear_295_4591" x1="552.183" y1="67.3729" x2="552.183" y2="114.888" gradientUnits="userSpaceOnUse">
<stop stop-color="#ECF0EA"/>
<stop offset="1" stop-color="#ECF0EA"/>
</linearGradient>
<linearGradient id="paint43_linear_295_4591" x1="528.598" y1="73.9463" x2="528.598" y2="99.3597" gradientUnits="userSpaceOnUse">
<stop stop-color="#ECF0EA"/>
<stop offset="1" stop-color="#ECF0EA"/>
</linearGradient>
<linearGradient id="paint44_linear_295_4591" x1="564.428" y1="58.194" x2="564.428" y2="83.6074" gradientUnits="userSpaceOnUse">
<stop stop-color="#ECF0EA"/>
<stop offset="1" stop-color="#ECF0EA"/>
</linearGradient>
<linearGradient id="paint45_linear_295_4591" x1="571.778" y1="76.1465" x2="571.778" y2="101.56" gradientUnits="userSpaceOnUse">
<stop stop-color="#ECF0EA"/>
<stop offset="1" stop-color="#ECF0EA"/>
</linearGradient>
<linearGradient id="paint46_linear_295_4591" x1="543.319" y1="63.4404" x2="543.319" y2="88.8537" gradientUnits="userSpaceOnUse">
<stop stop-color="#ECF0EA"/>
<stop offset="1" stop-color="#ECF0EA"/>
</linearGradient>
<linearGradient id="paint47_linear_295_4591" x1="563.24" y1="96.4113" x2="563.24" y2="121.825" gradientUnits="userSpaceOnUse">
<stop stop-color="#ECF0EA"/>
<stop offset="1" stop-color="#ECF0EA"/>
</linearGradient>
<linearGradient id="paint48_linear_295_4591" x1="541.315" y1="94.5112" x2="541.315" y2="119.925" gradientUnits="userSpaceOnUse">
<stop stop-color="#ECF0EA"/>
<stop offset="1" stop-color="#ECF0EA"/>
</linearGradient>
<linearGradient id="paint49_linear_295_4591" x1="404.337" y1="-56.1011" x2="404.337" y2="18.2237" gradientUnits="userSpaceOnUse">
<stop stop-color="#ECF0EA"/>
<stop offset="1" stop-color="#ECF0EA"/>
</linearGradient>
<linearGradient id="paint50_linear_295_4591" x1="433.383" y1="-28.4181" x2="433.383" y2="11.3296" gradientUnits="userSpaceOnUse">
<stop stop-color="#ECF0EA"/>
<stop offset="1" stop-color="#ECF0EA"/>
</linearGradient>
<linearGradient id="paint51_linear_295_4591" x1="407.359" y1="-5.92505" x2="407.359" y2="33.8226" gradientUnits="userSpaceOnUse">
<stop stop-color="#ECF0EA"/>
<stop offset="1" stop-color="#ECF0EA"/>
</linearGradient>
<linearGradient id="paint52_linear_295_4591" x1="377.927" y1="-23.7867" x2="377.927" y2="15.9609" gradientUnits="userSpaceOnUse">
<stop stop-color="#ECF0EA"/>
<stop offset="1" stop-color="#ECF0EA"/>
</linearGradient>
<linearGradient id="paint53_linear_295_4591" x1="127.328" y1="276.007" x2="127.328" y2="314.469" gradientUnits="userSpaceOnUse">
<stop stop-color="#ECF0EA"/>
<stop offset="1" stop-color="#ECF0EA"/>
</linearGradient>
<linearGradient id="paint54_linear_295_4591" x1="141.139" y1="271.284" x2="141.139" y2="291.851" gradientUnits="userSpaceOnUse">
<stop stop-color="#ECF0EA"/>
<stop offset="1" stop-color="#ECF0EA"/>
</linearGradient>
<linearGradient id="paint55_linear_295_4591" x1="135.203" y1="302.404" x2="135.203" y2="322.971" gradientUnits="userSpaceOnUse">
<stop stop-color="#ECF0EA"/>
<stop offset="1" stop-color="#ECF0EA"/>
</linearGradient>
<linearGradient id="paint56_linear_295_4591" x1="119.855" y1="299.058" x2="119.855" y2="319.624" gradientUnits="userSpaceOnUse">
<stop stop-color="#ECF0EA"/>
<stop offset="1" stop-color="#ECF0EA"/>
</linearGradient>
<linearGradient id="paint57_linear_295_4591" x1="115.082" y1="274.141" x2="115.082" y2="294.708" gradientUnits="userSpaceOnUse">
<stop stop-color="#ECF0EA"/>
<stop offset="1" stop-color="#ECF0EA"/>
</linearGradient>
<linearGradient id="paint58_linear_295_4591" x1="352.459" y1="45.1942" x2="352.459" y2="83.6565" gradientUnits="userSpaceOnUse">
<stop stop-color="#ECF0EA"/>
<stop offset="1" stop-color="#ECF0EA"/>
</linearGradient>
<linearGradient id="paint59_linear_295_4591" x1="366.269" y1="40.4718" x2="366.269" y2="61.0381" gradientUnits="userSpaceOnUse">
<stop stop-color="#ECF0EA"/>
<stop offset="1" stop-color="#ECF0EA"/>
</linearGradient>
<linearGradient id="paint60_linear_295_4591" x1="360.334" y1="71.5919" x2="360.334" y2="92.1582" gradientUnits="userSpaceOnUse">
<stop stop-color="#ECF0EA"/>
<stop offset="1" stop-color="#ECF0EA"/>
</linearGradient>
<linearGradient id="paint61_linear_295_4591" x1="344.986" y1="68.2528" x2="344.986" y2="88.8191" gradientUnits="userSpaceOnUse">
<stop stop-color="#ECF0EA"/>
<stop offset="1" stop-color="#ECF0EA"/>
</linearGradient>
<linearGradient id="paint62_linear_295_4591" x1="340.213" y1="43.329" x2="340.213" y2="63.8954" gradientUnits="userSpaceOnUse">
<stop stop-color="#ECF0EA"/>
<stop offset="1" stop-color="#ECF0EA"/>
</linearGradient>
<linearGradient id="paint63_linear_295_4591" x1="70.0076" y1="12.5375" x2="70.0076" y2="54.1992" gradientUnits="userSpaceOnUse">
<stop stop-color="#ECF0EA"/>
<stop offset="1" stop-color="#ECF0EA"/>
</linearGradient>
<linearGradient id="paint64_linear_295_4591" x1="60.66" y1="41.0868" x2="60.66" y2="63.3716" gradientUnits="userSpaceOnUse">
<stop stop-color="#ECF0EA"/>
<stop offset="1" stop-color="#ECF0EA"/>
</linearGradient>
<linearGradient id="paint65_linear_295_4591" x1="55.8123" y1="7.10974" x2="55.8123" y2="29.3946" gradientUnits="userSpaceOnUse">
<stop stop-color="#ECF0EA"/>
<stop offset="1" stop-color="#ECF0EA"/>
</linearGradient>
<linearGradient id="paint66_linear_295_4591" x1="72.7127" y1="5.13977" x2="72.7127" y2="27.4246" gradientUnits="userSpaceOnUse">
<stop stop-color="#ECF0EA"/>
<stop offset="1" stop-color="#ECF0EA"/>
</linearGradient>
<linearGradient id="paint67_linear_295_4591" x1="86.3553" y1="29.0019" x2="86.3553" y2="51.2867" gradientUnits="userSpaceOnUse">
<stop stop-color="#ECF0EA"/>
<stop offset="1" stop-color="#ECF0EA"/>
</linearGradient>
<linearGradient id="paint68_linear_295_4591" x1="167.991" y1="73.4432" x2="167.991" y2="106.638" gradientUnits="userSpaceOnUse">
<stop stop-color="#ECF0EA"/>
<stop offset="1" stop-color="#ECF0EA"/>
</linearGradient>
<linearGradient id="paint69_linear_295_4591" x1="160.545" y1="96.1948" x2="160.545" y2="113.953" gradientUnits="userSpaceOnUse">
<stop stop-color="#ECF0EA"/>
<stop offset="1" stop-color="#ECF0EA"/>
</linearGradient>
<linearGradient id="paint70_linear_295_4591" x1="156.682" y1="69.1262" x2="156.682" y2="86.8842" gradientUnits="userSpaceOnUse">
<stop stop-color="#ECF0EA"/>
<stop offset="1" stop-color="#ECF0EA"/>
</linearGradient>
<linearGradient id="paint71_linear_295_4591" x1="170.145" y1="67.5544" x2="170.145" y2="85.3125" gradientUnits="userSpaceOnUse">
<stop stop-color="#ECF0EA"/>
<stop offset="1" stop-color="#ECF0EA"/>
</linearGradient>
<linearGradient id="paint72_linear_295_4591" x1="181.022" y1="86.5618" x2="181.022" y2="104.32" gradientUnits="userSpaceOnUse">
<stop stop-color="#ECF0EA"/>
<stop offset="1" stop-color="#ECF0EA"/>
</linearGradient>
<clipPath id="clip0_295_4591">
<rect width="720" height="464" rx="24" fill="white"/>
</clipPath>
</defs>
</svg>
