<svg width="648" height="517" viewBox="0 0 648 517" fill="none" xmlns="http://www.w3.org/2000/svg">
<path d="M524.165 21.0385C524.165 21.0385 487.285 8.31365 423.03 41.8824C358.776 75.4511 175.238 170.483 175.238 170.483L300.653 409.876C300.653 409.876 519.117 329.495 534.916 292.745C550.723 256.003 507.106 112.201 507.106 112.201L524.165 21.0385Z" fill="#E7D8C9" stroke="#1B2E3F" stroke-miterlimit="10" stroke-linecap="round"/>
<path d="M544.28 212.233C569.366 211.329 590.433 230.976 591.335 256.116C592.237 281.255 572.633 302.368 547.548 303.272L459.91 306.431C434.825 307.336 413.758 287.689 412.855 262.549C411.953 237.41 431.557 216.297 456.643 215.393L544.28 212.233Z" fill="#E7D8C9" stroke="#1B2E3F" stroke-miterlimit="10" stroke-linecap="round"/>
<path d="M522.299 130.82C546.109 122.854 571.854 135.741 579.802 159.602C587.75 183.464 574.892 209.265 551.082 217.23L467.9 245.058C444.09 253.023 418.345 240.137 410.397 216.276C402.448 192.414 415.307 166.613 439.117 158.648L522.299 130.82Z" fill="#E7D8C9" stroke="#1B2E3F" stroke-miterlimit="10" stroke-linecap="round"/>
<path d="M315.421 158.074L345.339 178.076C364.046 190.59 389.028 187.773 404.504 171.414C424.148 150.651 420.481 117.187 396.823 101.184L353.02 71.5577C330.533 56.3477 300.882 57.141 279.235 73.5489L175.241 170.491" fill="#E7D8C9"/>
<path d="M315.421 158.074L345.339 178.076C364.046 190.59 389.028 187.773 404.504 171.414C424.148 150.651 420.481 117.187 396.823 101.184L353.02 71.5577C330.533 56.3477 300.882 57.141 279.235 73.5489L175.241 170.491" stroke="#1B2E3F" stroke-miterlimit="10" stroke-linecap="round"/>
<path d="M406.804 122.36C442.957 122.36 472.27 151.736 472.27 187.967C472.27 224.199 442.957 253.575 406.804 253.575C370.65 253.575 341.338 224.199 341.338 187.967C341.338 151.736 370.65 122.36 406.804 122.36ZM406.804 241.546C436.326 241.546 460.267 217.562 460.267 187.967C460.267 158.373 436.334 134.389 406.804 134.389C377.274 134.389 353.341 158.373 353.341 187.967C353.341 217.562 377.274 241.546 406.804 241.546Z" fill="#B2967D" stroke="#1B2E3F" stroke-miterlimit="10"/>
<path d="M350.733 245.982C355.499 221.933 378.365 205.468 402.621 208.649C429.26 212.146 447.32 237.143 442.668 263.353C439.501 281.202 426.643 294.882 410.488 299.925L390.715 411.308L376.871 408.839L365.595 382.548C365.425 382.151 365.102 381.852 364.699 381.682C358.6 379.124 354.877 372.591 356.08 365.8C357.082 360.174 361.193 355.892 366.322 354.411C367.655 354.03 367.954 352.33 366.839 351.513C362.534 348.348 360.143 342.908 361.145 337.274C362.146 331.648 366.257 327.366 371.386 325.885C372.719 325.504 373.018 323.805 371.903 322.987C367.598 319.822 365.207 314.382 366.209 308.757C367.202 303.171 371.265 298.913 376.346 297.4C357.607 288.39 346.46 267.514 350.733 245.974V245.982ZM393.009 275.431C404.188 277.422 414.866 269.959 416.853 258.756C418.84 247.552 411.393 236.851 400.214 234.86C389.035 232.869 378.357 240.332 376.37 251.535C374.383 262.738 381.83 273.439 393.009 275.431Z" fill="#B2967D" stroke="#1B2E3F" stroke-miterlimit="10"/>
<path d="M412.613 294.259C387.307 298.314 363.415 281.194 359.118 255.817C354.796 230.295 371.944 206.092 397.412 201.761C422.879 197.43 447.03 214.615 451.351 240.138C454.372 258.003 446.876 275.212 433.371 285.42L452.256 396.981L409.875 404.185L406.28 382.945L427.475 379.342L423.881 358.102L402.686 361.704L399.092 340.464L420.286 336.861L413.098 294.397L412.613 294.251V294.259ZM425.512 244.525C423.614 233.306 413.001 225.754 401.798 227.656C390.595 229.558 383.067 240.194 384.965 251.422C386.863 262.649 397.476 270.193 408.679 268.291C419.874 266.389 427.41 255.753 425.512 244.525Z" fill="#B2967D" stroke="#1B2E3F" stroke-miterlimit="10"/>
<path d="M372.689 262.682C362.423 240.429 371.235 213.628 392.72 201.899C416.314 189.012 445.586 198.572 457.217 222.508C465.141 238.81 462.774 257.444 452.677 271.052L502.094 372.77L489.453 378.938L464.898 364.327C464.527 364.108 464.091 364.052 463.671 364.157C457.241 365.687 450.392 362.603 447.379 356.402C444.883 351.27 445.691 345.377 448.978 341.152C449.826 340.059 449.075 338.505 447.694 338.505C442.355 338.489 437.226 335.493 434.73 330.353C432.234 325.221 433.042 319.328 436.329 315.103C437.177 314.01 436.426 312.464 435.045 312.456C429.706 312.44 424.577 309.445 422.081 304.313C419.601 299.213 420.385 293.369 423.608 289.151C403.164 292.923 381.897 282.611 372.705 262.682H372.689ZM424.165 261.556C434.375 256.578 438.623 244.242 433.648 234.01C428.68 223.779 416.37 219.521 406.161 224.507C395.951 229.485 391.703 241.822 396.678 252.053C401.646 262.285 413.955 266.543 424.165 261.556Z" fill="#B2967D" stroke="#1B2E3F" stroke-miterlimit="10"/>
<path d="M406.804 241.546C436.326 241.546 460.267 217.562 460.267 187.967C460.267 176.441 456.632 165.764 450.453 157.021L458.619 147.866C467.173 158.956 472.27 172.863 472.27 187.967C472.27 224.199 442.957 253.575 406.804 253.575" fill="#B2967D"/>
<path d="M406.804 241.546C436.326 241.546 460.267 217.562 460.267 187.967C460.267 176.441 456.632 165.764 450.453 157.021L458.619 147.866C467.173 158.956 472.27 172.863 472.27 187.967C472.27 224.199 442.957 253.575 406.804 253.575" stroke="#1B2E3F" stroke-miterlimit="10"/>
<path d="M485.452 35.9306C502.236 17.1772 531.012 15.6103 549.725 32.4309C568.438 49.2514 570.001 78.0898 553.217 96.8433L494.75 162.17C477.965 180.924 449.189 182.491 430.476 165.67C411.764 148.849 410.2 120.011 426.984 101.258L485.452 35.9306Z" fill="#E7D8C9" stroke="#1B2E3F" stroke-miterlimit="10" stroke-linecap="round"/>
<path d="M24.1819 247.981L175.242 170.491L304.671 410.167C311.641 423.07 306.908 439.186 294.073 446.253L192.01 502.446C179.062 509.578 162.803 504.778 155.776 491.761L24.1819 247.981Z" fill="#E6BEAE" stroke="#1B2E3F" stroke-miterlimit="10" stroke-linecap="round"/>
<path d="M206.435 447.143C187.003 447.143 171.251 431.357 171.251 411.883C171.251 392.409 187.003 376.622 206.435 376.622C225.867 376.622 241.619 392.409 241.619 411.883C241.619 431.357 225.867 447.143 206.435 447.143Z" fill="#BBCBB6" stroke="#1B2E3F" stroke-miterlimit="10" stroke-linecap="round"/>
<path d="M216.709 406.856C213.805 406.856 211.45 404.497 211.45 401.587C211.45 398.676 213.805 396.317 216.709 396.317C219.613 396.317 221.967 398.676 221.967 401.587C221.967 404.497 219.613 406.856 216.709 406.856Z" fill="#1B2E3F"/>
<path d="M196.16 406.856C193.256 406.856 190.901 404.497 190.901 401.587C190.901 398.676 193.256 396.317 196.16 396.317C199.064 396.317 201.418 398.676 201.418 401.587C201.418 404.497 199.064 406.856 196.16 406.856Z" fill="#1B2E3F"/>
<path d="M216.709 427.449C213.805 427.449 211.45 425.09 211.45 422.179C211.45 419.269 213.805 416.91 216.709 416.91C219.613 416.91 221.967 419.269 221.967 422.179C221.967 425.09 219.613 427.449 216.709 427.449Z" fill="#1B2E3F"/>
<path d="M196.16 427.449C193.256 427.449 190.901 425.09 190.901 422.179C190.901 419.269 193.256 416.91 196.16 416.91C199.064 416.91 201.418 419.269 201.418 422.179C201.418 425.09 199.064 427.449 196.16 427.449Z" fill="#1B2E3F"/>
</svg>
