<svg width="50" height="48" viewBox="0 0 50 48" fill="none" xmlns="http://www.w3.org/2000/svg">
<path fill-rule="evenodd" clip-rule="evenodd" d="M24.0227 16.7204C24.0227 20.8272 22.6051 26.8904 19.9734 27.0851C13.7627 27.547 6.00516 13.7695 6.00516 9.09392C6.00516 3.14017 8.16323 1.47817 9.38173 0.539757L9.44741 0.489137C10.2216 -0.109686 12.5366 -0.0212227 14.4882 0.0533552C15.0872 0.0762454 15.652 0.0978275 16.1275 0.0978275C21.0196 0.0978275 24.0227 12.6137 24.0227 16.7204ZM49.6132 4.39719V10.2719C49.6132 10.5119 49.558 10.7459 49.4599 10.9698C48.711 12.6833 46.4474 10.7368 46.1501 8.89826C45.9233 7.49572 45.5225 5.99214 45.1625 4.64145L45.1625 4.64139C44.6068 2.55681 44.1482 0.836382 44.5761 0.413497C45.7162 -0.713031 49.6132 0.413497 49.6132 4.39719ZM0 10.272V4.39733C0 0.413637 3.89704 -0.712892 5.03612 0.413637C5.46385 0.836372 5.00573 2.55573 4.45055 4.63931C4.0905 5.99059 3.68963 7.49507 3.46311 8.8984C3.16583 10.737 0.902287 12.6834 0.153337 10.9699C0.0552846 10.746 0 10.5121 0 10.272ZM11.7777 47.9314C17.1601 47.7378 20.0036 44.3895 20.1622 43.742C23.8913 28.5293 10.9213 31.8464 2.10707 36.0338C0.791717 36.6591 0 37.9712 0 39.3872V44.8342C0 46.5447 1.43323 47.9375 3.20233 47.9617H3.26388C5.85913 47.998 8.81112 48.0383 11.7777 47.9314ZM37.8679 47.9314C32.4854 47.7378 29.643 44.3895 29.4844 43.742C25.7543 28.5293 38.7243 31.8464 47.5395 36.0338C48.8539 36.6591 49.6456 37.9712 49.6456 39.3872V44.8342C49.6456 46.5447 48.2123 47.9375 46.4432 47.9617H46.3817C43.7875 47.998 40.8345 48.0383 37.8679 47.9314ZM0 13.8239C0 11.4569 13.8921 25.0146 12.2815 28.0271C10.671 31.0395 0 34.9133 0 31.685V13.8239ZM37.364 28.0271C35.7535 25.0146 49.6456 11.4569 49.6456 13.8239V31.685C49.6456 34.9133 38.9746 31.0395 37.364 28.0271ZM26.8913 0.485103C28.0095 1.15779 25.9973 5.22923 25.5624 5.78897C25.1774 6.28516 24.4254 6.36988 23.9747 5.78897C23.619 5.33109 21.7915 1.10434 22.6458 0.485103C23.5001 -0.135143 25.7731 -0.187587 26.8913 0.485103ZM29.6722 27.0851C27.0404 26.8904 25.6239 20.8272 25.6239 16.7204C25.6239 12.6137 28.627 0.0978275 33.5192 0.0978275C33.9943 0.0978275 34.5588 0.0762513 35.1576 0.0533646C37.1089 -0.0212153 39.4242 -0.109711 40.1992 0.489137C40.221 0.505992 40.2432 0.52307 40.2657 0.540396C41.4833 1.47892 43.6404 3.14152 43.6404 9.09392C43.6404 13.7695 35.8828 27.547 29.6722 27.0851Z" fill="url(#paint0_linear_705_8029)"/>
<defs>
<linearGradient id="paint0_linear_705_8029" x1="31.1374" y1="-41.5" x2="1.12158" y2="39.183" gradientUnits="userSpaceOnUse">
<stop stop-color="#1B2E3F"/>
<stop offset="1" stop-color="#606468"/>
</linearGradient>
</defs>
</svg>
